<svg width="641" height="793" viewBox="0 0 641 793" fill="none" xmlns="http://www.w3.org/2000/svg">
<path d="M213.416 414.136C141.866 376.177 -11.4318 291.086 0.677538 257.376C13.8928 220.602 217.615 262.866 291.564 279.148C374.343 85.4448 430.784 -7.44897 460.889 0.466091C487.957 7.57272 493.731 96.1235 478.247 266.081C553.977 239.027 672.672 201.125 686.637 226.901C702.589 256.342 574.522 355.365 512.982 401.07C662.849 554.182 692.654 605.921 682.306 618.781C672.39 631.114 620.016 614.776 458.715 514.268C439.782 597.968 392.113 796.634 358.859 792.949C326.655 789.377 322.513 597.536 321.95 509.925C277.862 548.654 100.139 702.913 72.3213 677.57C44.691 652.377 178.831 462.453 213.416 414.136Z" fill="white"/>
</svg>
