<svg width="90" height="83" viewBox="0 0 90 83" fill="none" xmlns="http://www.w3.org/2000/svg">
<path d="M40.7939 28.0387C41.4027 24.5859 43.694 14.2512 52.8509 7.16124C59.0436 2.37048 71.1086 -3.04516 76.7326 2.05804C81.2189 6.1358 79.6968 15.1966 76.9729 20.6122C71.4451 31.5957 58.2104 33.0298 57.0248 33.1339C67.4395 28.7437 78.1265 29.4968 84.3914 35.4572C84.9922 36.026 91.4333 42.3228 89.4946 48.9081C87.2674 56.4708 76.0116 57.6404 75.1143 57.7206C64.275 58.706 56.6643 50.1098 55.6308 48.9081C56.4319 49.2606 66.0375 53.6508 67.6878 63.7531C69.0017 71.7644 64.964 81.2097 58.8754 82.7719C51.2166 84.7347 42.6845 73.6071 39.3919 65.6118C37.0927 60.0279 36.9164 54.8927 37.0686 51.6961C36.2274 54.2437 33.6478 60.9331 26.8622 65.1471C20.2369 69.2729 8.3481 71.8125 2.74018 65.1471C-1.89035 59.6433 -0.127858 50.3502 4.13415 44.7343C9.10917 38.181 18.3702 35.4652 27.3269 38.2371C25.3561 37.8526 13.3471 35.313 8.30804 24.7861C8.05168 24.2574 3.22888 13.8908 7.84339 9.0119C12.3297 4.2692 22.6883 7.92232 27.7915 10.8705C36.7882 16.0698 39.9126 25.1306 40.7779 28.0307L40.7939 28.0387Z" fill="#CCDCFF"/>
<path d="M41.2268 45.6237C43.5143 45.6237 45.3686 43.7694 45.3686 41.4819C45.3686 39.1944 43.5143 37.34 41.2268 37.34C38.9393 37.34 37.085 39.1944 37.085 41.4819C37.085 43.7694 38.9393 45.6237 41.2268 45.6237Z" fill="white"/>
</svg>
