<svg width="201" height="171" viewBox="0 0 201 171" fill="none" xmlns="http://www.w3.org/2000/svg">
<path d="M110.97 91.69L39.26 164.88C26.17 130.36 13.09 95.83 0 61.31C21.32 43.69 42.6401 26.07 63.9601 8.43999C93.8801 5.62999 123.8 2.81 153.72 0C169.44 20.64 185.16 41.29 200.88 61.93L110.97 91.69Z" fill="#4B5544"/>
<path d="M118.36 88.1C106.54 69.07 94.7197 50.04 82.8997 31.02C79.6497 25.79 76.4097 20.57 73.1597 15.34" stroke="white" stroke-width="4" stroke-linecap="round" stroke-linejoin="round"/>
<path d="M105.16 96.99C90.3498 72.81 75.5297 48.63 60.7197 24.45" stroke="white" stroke-width="4" stroke-linecap="round" stroke-linejoin="round"/>
<path d="M197.82 68.92C198.02 67.57 198.21 66.21 198.41 64.86C169.26 73.81 140.12 82.75 110.97 91.7C87.8701 116.24 64.7702 140.78 41.6802 165.32C42.0402 166.18 42.3901 167.04 42.7501 167.91C53.9501 162.4 71.9902 151.71 88.3102 132.32C100.64 117.67 107.67 103.18 111.69 92.85C123.4 94.03 143.75 94.46 166.68 86C180.12 81.04 190.51 74.47 197.84 68.94L197.82 68.92Z" fill="white" stroke="white" stroke-width="4" stroke-miterlimit="10" stroke-linecap="round"/>
</svg>
