<svg width="336" height="338" viewBox="0 0 336 338" fill="none" xmlns="http://www.w3.org/2000/svg">
<path d="M191.793 132.054L304.755 163.519L241.993 267.73L129.236 223.141L33.5329 183.563L112.313 58.3504L191.793 132.054Z" fill="#4B5544"/>
<path d="M186.088 127.533C170.272 156.652 154.464 185.781 138.657 214.894" stroke="white" stroke-width="4" stroke-linecap="round" stroke-linejoin="round"/>
<path d="M200.177 132.965C183.839 162.774 167.492 192.589 151.148 222.389" stroke="white" stroke-width="4" stroke-linecap="round" stroke-linejoin="round"/>
<path d="M125.886 51.6434C122.541 53.9302 119.196 56.2169 115.844 58.4943C141.164 83.0066 166.475 107.525 191.802 132.047C228.463 141.457 265.114 150.874 301.775 160.284C301.146 157.087 300.511 153.88 299.883 150.683C290.144 143.796 270.726 132.052 243.443 128.103C221.521 124.927 203.455 128.079 192.597 130.871C190.277 120.941 185.006 104.298 172.189 87.4972C155.735 65.9509 135.771 55.8374 125.905 51.6303L125.886 51.6434Z" fill="white" stroke="#C1BEB4" stroke-width="4" stroke-miterlimit="10" stroke-linecap="round"/>
</svg>
