<svg width="262" height="195" viewBox="0 0 262 195" fill="none" xmlns="http://www.w3.org/2000/svg">
<path d="M60.027 97.6748C60.8477 101.959 61.6717 106.239 62.4978 110.527C59.9535 111.455 57.4125 112.378 54.8629 113.303C58.2916 125.504 61.7204 137.706 65.1524 149.902C68.0304 148.896 70.9084 147.889 73.781 146.88C75.3936 152.68 77.0061 158.48 78.61 164.282C93.4 153.709 108.187 143.141 122.982 132.571C123.254 133.523 124.624 137.933 128.922 140.131C133.505 142.479 139.538 141.348 143.764 137.167C146.045 145.931 148.334 154.693 150.615 163.458C169.321 157.169 190.63 148.597 213.304 136.774C231.924 127.064 248.148 116.893 262 107.181C260.695 101.736 245.237 37.5665 235.849 16.4102C234.958 14.4007 232.952 10.1435 228.623 6.50714C222.664 1.50341 212.711 -1.9835 202.636 1.2547C194.057 4.01254 186.816 11.1837 184.845 19.4774C182.175 30.6885 190.713 37.2791 186.285 44.6257C183.456 49.3185 177.056 51.4723 172.109 51.1923C163.018 50.6764 161.616 42.1121 153.001 39.9411C142.341 37.2487 125.95 45.6854 121.745 60.2593C118.358 71.9872 124.579 82.2401 125.937 84.3772C125.117 84.2131 120.275 83.3197 116.182 86.4396C112.242 89.4388 110.598 94.9351 112.149 100.191C94.7768 99.3531 77.4013 98.521 60.0291 97.6835L60.027 97.6748Z" fill="#A69FAC"/>
<path d="M68.9426 105.347C73.6355 117.451 77.7775 129.774 81.3707 142.252C82.3865 145.786 83.359 149.331 84.2852 152.892C84.7985 154.857 87.8573 154.1 87.3439 152.134C84.0147 139.39 80.1227 126.798 75.6647 114.402C74.3899 110.858 73.0708 107.339 71.7085 103.831C71.4017 103.035 70.2515 102.834 69.5727 103.204C68.7437 103.652 68.6337 104.542 68.9458 105.341L68.9426 105.347Z" fill="#58595B"/>
<path d="M79.8105 104.78C83.1122 115.522 86.4193 126.267 89.721 137.008C90.6752 140.108 91.6262 143.213 92.5858 146.316C93.178 148.248 96.2389 147.5 95.6445 145.559C92.3225 134.753 88.9983 123.939 85.6762 113.134C84.7424 110.098 83.8085 107.062 82.8747 104.026C82.2824 102.094 79.2216 102.843 79.8159 104.783L79.8105 104.78Z" fill="#58595B"/>
<path d="M104.191 106.186C106.715 114.243 109.233 122.297 111.756 130.354C112.357 132.284 115.418 131.535 114.815 129.596C112.291 121.539 109.773 113.485 107.25 105.428C106.649 103.498 103.588 104.247 104.191 106.186Z" fill="#58595B"/>
<path d="M130.357 94.5069C134.045 104.694 137.735 114.876 141.423 125.063C141.712 125.863 142.44 126.436 143.33 126.215C144.091 126.027 144.773 125.115 144.481 124.306C140.794 114.118 137.103 103.937 133.416 93.7494C133.127 92.9492 132.398 92.377 131.508 92.5974C130.748 92.7857 130.066 93.698 130.357 94.5069Z" fill="#58595B"/>
<path d="M91.6637 105.139C95.348 116.539 99.0238 127.94 102.708 139.34C102.968 140.152 103.746 140.703 104.616 140.492C105.394 140.299 106.027 139.394 105.767 138.582C102.082 127.183 98.4068 115.781 94.7224 104.382C94.4621 103.57 93.6841 103.019 92.8146 103.23C92.037 103.423 91.4033 104.327 91.6637 105.139Z" fill="#58595B"/>
<path d="M62.4978 110.527C66.2582 122.641 70.0239 134.76 73.781 146.88C70.903 147.886 68.025 148.893 65.1524 149.902C61.7236 137.701 58.2949 125.499 54.8629 113.303C57.4071 112.375 59.9481 111.452 62.4978 110.527Z" fill="#939598"/>
<path d="M168.061 79.9435C174.076 69.9637 170.87 56.9927 160.899 50.9717C150.929 44.9508 137.969 48.16 131.954 58.1398C125.938 68.1195 129.144 81.0905 139.115 87.1115C149.086 93.1324 162.045 89.9232 168.061 79.9435Z" fill="#231F20"/>
<path d="M230.485 41.2098C236.501 31.2301 233.295 18.259 223.324 12.2381C213.353 6.21718 200.394 9.42641 194.378 19.4061C188.363 29.3858 191.569 42.3569 201.54 48.3778C211.51 54.3988 224.47 51.1895 230.485 41.2098Z" fill="#231F20"/>
<path d="M150.078 142.923C152.335 142.056 154.59 141.181 156.847 140.315C157.258 140.158 157.579 139.991 157.816 139.598C158.014 139.269 158.109 138.782 157.998 138.405C157.887 138.029 157.652 137.637 157.281 137.436C156.943 137.253 156.472 137.108 156.09 137.253C153.833 138.12 151.578 138.995 149.321 139.861C148.911 140.018 148.59 140.184 148.352 140.578C148.154 140.907 148.059 141.394 148.17 141.77C148.282 142.147 148.516 142.538 148.887 142.74C149.225 142.923 149.697 143.067 150.078 142.923Z" fill="#D46370"/>
<path d="M151.319 99.0118C152.366 97.275 149.671 95.6478 148.624 97.3847C147.577 99.1216 150.272 100.749 151.319 99.0118Z" fill="#447700"/>
<path d="M147.075 100.931C148.121 99.1937 145.427 97.5666 144.38 99.3034C143.333 101.04 146.028 102.667 147.075 100.931Z" fill="#D46370"/>
<path d="M53.5373 159.891L39.1968 114.842L8.63439 99.2784L23.0084 118.553L0 125.517L26.1043 144.709L5.95146 163.411L37.4689 162.659L34.2124 195L53.5373 159.891Z" fill="#FFD971"/>
<path d="M78.1992 58.6985C74.3402 54.3082 70.4866 49.9211 66.6275 45.5308C71.6363 47.2089 76.6482 48.8817 81.6569 50.5598C83.8517 45.9919 86.0465 41.424 88.2412 36.8561C88.3121 41.4457 88.3862 46.03 88.4571 50.6196C93.7084 51.0905 98.951 51.5635 104.202 52.0344C99.0325 54.0259 93.8572 56.0141 88.6907 58.0003C89.6995 63.5094 90.7029 69.0153 91.7117 74.5245C88.6654 70.6029 85.6137 66.678 82.5674 62.7563L69.7046 72.3155L78.1992 58.6985Z" fill="#F1E2AF"/>
</svg>
