<svg width="303" height="326" viewBox="0 0 303 326" fill="none" xmlns="http://www.w3.org/2000/svg">
<path d="M52.7304 21.0703C50.6204 15.2618 52.3605 8.81258 56.8005 5.3464C62.2605 1.08194 69.9605 2.77302 73.7705 7.41561C78.4505 13.1191 77.3905 23.4861 69.9305 28.99L64.1505 33.8006C67.3805 39.294 70.6105 44.7979 73.8405 50.2913" stroke="#BCBEC0" stroke-width="4" stroke-miterlimit="10"/>
<path d="M43.5107 80.237C67.8307 65.1328 92.1507 50.0287 116.471 34.9245C114.641 32.141 112.801 29.3576 110.971 26.5741C86.8407 41.7203 62.7208 56.877 38.5908 72.0232C40.2308 74.7646 41.8707 77.4956 43.5107 80.237Z" fill="#BCBEC0" stroke="#BCBEC0" stroke-width="4" stroke-miterlimit="10"/>
<path d="M98.8101 169.948C55.9501 249.839 37.95 303.418 54.52 319.572C92.78 356.87 319.72 198.529 301.18 144.404C292.85 120.067 235.12 117.451 162.22 124.331L151.8 72.3278C155.53 71.0149 160.76 68.4415 164.83 63.2002C174.73 50.4594 171.82 29.5887 163.09 19.4107C151.12 5.45144 122.43 4.90524 100.56 26.5637L97.0901 97.8621L54.53 55.9002C22.65 53.2848 0.320072 75.3529 0.680072 94.2173C1.00007 110.834 19.0301 129.909 37.1601 128.879C43.4301 128.522 48.4901 125.833 51.9201 123.407L98.8201 169.927L98.8101 169.948Z" fill="#050505"/>
<path d="M52.08 68.9247C55.3 68.9247 55.3 63.6729 52.08 63.6729C48.86 63.6729 48.86 68.9247 52.08 68.9247Z" fill="white"/>
<path d="M59.75 78.1364C62.97 78.1364 62.97 72.8846 59.75 72.8846C56.53 72.8846 56.53 78.1364 59.75 78.1364Z" fill="white"/>
<path d="M69.25 87.3481C72.47 87.3481 72.47 82.0963 69.25 82.0963C66.03 82.0963 66.03 87.3481 69.25 87.3481Z" fill="white"/>
<path d="M78.75 95.793C81.97 95.793 81.97 90.5412 78.75 90.5412C75.53 90.5412 75.53 95.793 78.75 95.793Z" fill="white"/>
<path d="M88.6201 105.771C91.8401 105.771 91.8401 100.52 88.6201 100.52C85.4001 100.52 85.4001 105.771 88.6201 105.771Z" fill="white"/>
<path d="M107.26 37.4455C110.48 37.4455 110.48 32.1937 107.26 32.1937C104.04 32.1937 104.04 37.4455 107.26 37.4455Z" fill="white"/>
<path d="M107.26 48.5794C110.48 48.5794 110.48 43.3276 107.26 43.3276C104.04 43.3276 104.04 48.5794 107.26 48.5794Z" fill="white"/>
<path d="M106.53 60.4798C109.75 60.4798 109.75 55.228 106.53 55.228C103.31 55.228 103.31 60.4798 106.53 60.4798Z" fill="white"/>
<path d="M106.16 72.7587C109.38 72.7587 109.38 67.5069 106.16 67.5069C102.94 67.5069 102.94 72.7587 106.16 72.7587Z" fill="white"/>
<path d="M105.79 85.0478C109.01 85.0478 109.01 79.796 105.79 79.796C102.57 79.796 102.57 85.0478 105.79 85.0478Z" fill="white"/>
<path d="M105.431 98.482C108.651 98.482 108.651 93.2302 105.431 93.2302C102.211 93.2302 102.211 98.482 105.431 98.482Z" fill="white"/>
<path d="M102.51 112.294C105.73 112.294 105.73 107.042 102.51 107.042C99.2897 107.042 99.2897 112.294 102.51 112.294Z" fill="white"/>
<path d="M174.411 105.299C170.051 120.592 160.251 133.816 148.221 143.584C136.191 153.353 122.011 159.865 107.441 164.434C103.361 165.715 99.1607 166.881 95.5507 169.255C88.6507 173.782 84.8707 181.954 81.4307 189.695" stroke="white" stroke-width="4" stroke-linecap="round" stroke-linejoin="round"/>
</svg>
