<svg width="174" height="212" viewBox="0 0 174 212" fill="none" xmlns="http://www.w3.org/2000/svg">
<path d="M39.6556 87.1844C75.9403 112.572 92.6332 128.156 89.7468 133.932C86.5481 140.325 59.3636 134.709 8.19339 117.086C13.1059 111.71 18.5564 106.128 24.5746 100.468C29.7178 95.6345 34.7688 91.215 39.6556 87.1844V87.1844Z" fill="#231F20"/>
<path d="M78.3943 59.8128C59.7903 71.0321 34.943 88.7196 10.5777 115.409C-12.9338 141.164 -28.0012 166.527 -37.4691 185.616" stroke="white" stroke-width="4" stroke-linecap="round" stroke-linejoin="round"/>
<path d="M128.877 11.65C124.402 5.72191 82.246 14.9947 76.8228 43.4936C74.251 57.0225 80.5908 71.5553 91.0156 79.4484C115.063 97.6632 154.915 76.0671 154.207 69.0773C153.972 66.7396 149.02 64.3262 132.657 62.6455C142.82 59.816 149.859 54.7233 149.445 51.0413C149.005 47.1179 139.933 43.2592 126.981 43.8717C136.742 39.4985 143.464 34.2461 142.664 31.2597C141.826 28.1423 132.637 26.9094 120.316 28.7603C129.46 17.4494 130.119 13.3 128.88 11.6545L128.877 11.65Z" fill="#1C0300"/>
</svg>
