<svg width="669" height="573" viewBox="0 0 669 573" fill="none" xmlns="http://www.w3.org/2000/svg">
<path d="M488.014 425.855C474.081 416.24 430.176 385.305 434.955 376.608C439.538 368.274 486.656 384.292 503.532 390.264C512.636 360.106 528.426 311.407 536.149 312.359C543.643 313.286 540.524 360.609 537.735 391.726C597.451 379.548 627.958 376.368 629.249 382.181C630.465 387.653 605.779 401.104 555.191 422.527C583.976 446.059 618.594 476.325 614.146 482.988C609.864 489.404 570.817 471.696 537.28 454.935C534.961 510.96 531.151 539.335 525.851 540.065C520.316 540.827 513.153 511.413 504.364 451.825C459.752 488.899 445.229 496.524 442.505 493.723C439.691 490.83 447.839 475.152 488.021 425.86L488.014 425.855Z" fill="#F7A4C2"/>
<path d="M226.791 464.038C143.815 464.151 67.4004 494.742 69.3784 506.839C70.6107 514.356 122.84 514.779 227.257 515.314C333.983 515.865 387.372 515.982 388.677 508.504C390.815 496.25 312.391 463.92 226.791 464.043V464.038Z" fill="#EF9EBF"/>
<path d="M249.102 59.1067C255.207 63.3519 263.704 61.5831 267.199 56.0211C270.363 50.98 268.742 43.885 263.057 40.2983C267.137 36.0089 267.675 29.8524 264.61 25.5581C260.97 20.458 254.14 20.63 253.736 20.6447C256.16 13.5547 252.157 6.10106 245.452 3.93917C239.679 2.077 232.875 4.44034 229.401 9.83524C226.837 3.73772 221.054 -0.207731 215.42 0.00845851C207.731 0.303262 200.399 8.3514 201.958 18.188C193.352 14.7339 183.421 18.075 179.175 25.5581C175.224 32.5253 177.109 41.4922 183.835 46.6857C176.063 53.0485 174.365 63.2094 178.657 69.7786C183.939 77.8611 198.214 80.3964 208.171 72.2353C221.815 67.8575 235.459 63.4846 249.102 59.1067Z" fill="#FFF0C2"/>
<path d="M243.381 69.7789C273.413 78.4608 303.444 87.1379 333.476 95.8198C353.348 86.9364 381.262 70.7419 402.859 41.7725C407.328 35.7782 411.087 29.8281 414.251 24.0843C415.089 22.1141 417.383 21.3623 418.911 22.119C420.06 22.6889 420.733 24.0942 420.464 25.5584C418.046 31.1252 415.633 36.697 413.215 42.2639C417.704 36.0386 422.188 29.8183 426.677 23.593C429.137 20.3502 433.238 20.0554 434.962 21.6276C436.189 22.7479 436.381 24.9687 435.48 27.0324C431.855 33.0906 428.231 39.1537 424.606 45.2119C430.131 38.8245 435.651 32.4371 441.175 26.0497C442.729 24.1482 445.551 23.7944 447.389 25.067C449.408 26.4624 449.791 29.4891 447.907 31.4544C442.558 38.171 437.204 44.8827 431.855 51.5993C438.069 46.5238 444.282 41.4433 450.496 36.3678C452.753 35.0854 455.503 35.6603 456.709 37.3505C457.594 38.5887 457.579 40.3231 456.709 41.7725C450.501 46.8088 444.298 51.8499 438.089 56.8861C441.6 55.9624 445.105 55.0387 448.616 54.1101C451.246 53.6531 453.789 54.6407 454.855 56.4243C456.31 58.8613 455 62.792 451.252 64.2857C441.828 67.278 432.409 70.2653 422.986 73.2575C416.379 82.3719 379.989 131.265 338.659 132.179C333.838 132.287 323.431 131.864 311.734 130.214C291.271 127.324 274.992 121.836 264.098 117.439C257.195 101.554 250.288 85.6638 243.386 69.7789H243.381Z" fill="#FECEAA"/>
<path d="M208.171 72.2355C204.552 77.9891 197.163 91.7122 199.887 108.595C200.902 114.889 202.507 124.838 211.278 131.196C221.137 138.34 235.847 137.903 244.416 132.67C258.542 124.042 262.938 98.0946 247.523 72.2355C246.156 74.2745 242.221 79.4975 235.096 81.5709C225.9 84.2487 215.161 80.5784 208.171 72.2355Z" fill="#FECEAA"/>
<path d="M252.888 55.1812C256.708 55.1812 259.805 52.1367 259.805 48.3811C259.805 44.6255 256.708 41.5809 252.888 41.5809C249.067 41.5809 245.97 44.6255 245.97 48.3811C245.97 52.1367 249.067 55.1812 252.888 55.1812Z" fill="#FECEAA"/>
<path d="M199.286 70.5649C203.107 70.5649 206.204 67.5203 206.204 63.7647C206.204 60.0091 203.107 56.9646 199.286 56.9646C195.466 56.9646 192.369 60.0091 192.369 63.7647C192.369 67.5203 195.466 70.5649 199.286 70.5649Z" fill="#FECEAA"/>
<path d="M247.85 50.3021C248.999 49.8992 250.138 49.462 251.257 48.9854" stroke="#050505" stroke-width="3" stroke-miterlimit="10" stroke-linecap="round"/>
<path d="M201.751 47.069C201.129 63.0621 207.71 76.2595 217.491 80.5538C224.751 83.7426 231.839 82.9908 231.839 82.9908C231.839 82.9908 237.794 82.6272 241.972 79.802C251.36 73.4588 251.463 54.4735 242.713 32.9578C229.059 37.6599 215.4 42.362 201.746 47.0641L201.751 47.069Z" fill="#FECEAA"/>
<path d="M197.298 46.1944C197.443 50.4052 200.203 53.8347 203.511 54.5472C207.866 55.4807 213.468 51.7662 213.867 45.7031C214.302 46.1207 217.569 49.1572 222.152 48.6511C226.429 48.1745 230.063 44.8088 230.954 40.2983C233.248 44.5189 238.809 45.9979 242.863 43.7377C246.643 41.6348 248.124 36.8393 245.97 32.9282C242.568 31.1054 235.899 28.1672 227.329 28.5062C208.819 29.2334 198.38 44.5533 197.298 46.1944Z" fill="#FFF0C2"/>
<path d="M16.0727 98.7677C26.5372 93.3433 37.9337 96.4191 46.6222 98.7677C64.0612 103.48 66.6139 111.316 81.8317 114.982C95.5375 118.284 104.329 114.54 112.381 113.999C135.071 112.471 160.1 135.815 190.567 185.243C237.711 261.73 267.8 310.554 243.899 344.437C228.308 366.543 194.606 375.387 168.82 370.969C123.291 363.172 100.125 313.635 90.634 293.338C65.7906 240.214 84.8452 214.311 55.9423 191.139C44.8151 182.217 25.7864 173.068 8.82371 150.358C5.02315 145.268 0.373423 138.227 0.0213281 128.739C-0.367012 118.215 4.53125 104.747 16.0727 98.7677Z" fill="white"/>
<path d="M212.832 70.7614C184.405 79.8904 162.788 91.0389 148.108 99.7504C109.932 122.406 106.106 136.036 105.132 140.531C103.465 148.221 104.718 155.36 107.203 169.52C109.419 182.143 112.837 191.714 116.523 199.492C122.421 211.928 125.828 219.126 133.61 221.111C140.29 222.816 147.953 220.114 152.768 215.706C154.317 214.291 158.48 210.036 158.982 203.914C159.391 198.937 157.19 195.065 156.393 193.596C153.183 187.685 148.911 176.895 143.966 155.272C156.393 146.098 168.82 136.93 181.247 127.757C191.773 108.757 202.305 89.7614 212.832 70.7614Z" fill="#FECEAA"/>
<path d="M195.133 74.8976C193.725 75.4184 192.316 75.9393 190.903 76.4552C184.648 89.9375 180.288 101.464 177.368 109.881C168.938 134.163 168.767 143.208 169.083 148.697C169.668 158.764 170.233 168.488 177.368 173.755C186.227 180.295 194.351 171.937 216.719 175.229C233.91 177.759 237.276 182.206 245.198 179.16C256.993 174.625 260.747 159.147 262.802 150.662C263.703 146.952 265.583 135.696 260.214 108.407C258.246 98.4082 255.409 86.8715 251.225 74.2196C249.387 73.6594 247.548 73.0993 245.716 72.5392C244.24 79.2656 241.361 89.6918 235.36 101.528C232.849 106.481 223.746 124.444 218.273 123.147C215.037 122.381 215.384 115.438 213.095 106.442C209.766 93.3523 202.636 82.9359 195.133 74.8927V74.8976Z" fill="white"/>
<path d="M224.223 209.81C225.544 213.151 226.564 216.434 227.33 219.637C237.044 260.163 208.959 297.917 195.745 313.483L296.713 424.034C286.705 435.173 276.691 446.307 266.682 457.445C259.95 458.099 253.219 458.757 246.488 459.411L266.682 428.456C260.634 423.317 250.081 414.654 236.132 404.872C206.142 383.838 188.9 377.583 162.089 355.738C144.059 341.052 135.019 333.48 133.61 322.327C131.788 307.911 142.527 299.534 154.84 277.124C161.276 265.41 169.498 247.383 174.516 222.585C175.344 222.472 176.607 222.305 178.14 222.094C203.522 218.625 207.923 217.392 211.279 216.198C214.478 215.063 219.045 213.142 224.223 209.81Z" fill="#FECEAA"/>
<path d="M272.895 214.232C274.35 217.554 275.36 220.836 276.002 224.059C285.524 271.709 217.331 318.401 205.583 326.258C216.627 362.287 227.677 398.322 238.721 434.352C228.194 448.439 217.663 462.521 207.136 476.607L179.176 473.659C187.631 462.521 196.092 451.387 204.547 440.248C198.51 429.537 189.687 413.47 179.693 393.571C152.059 338.551 151.448 325.909 153.804 315.448C156.02 305.607 164.46 294.999 181.247 274.176C197.743 253.716 212.625 237.782 223.187 227.007C224.016 226.894 225.279 226.727 226.812 226.516C252.194 223.047 256.595 221.814 259.95 220.62C263.15 219.485 267.717 217.564 272.895 214.232Z" fill="#FED8BD"/>
<path d="M265.646 261.401C246.141 250.754 226.641 240.111 207.136 229.464C208.819 229.061 211.319 228.501 214.385 227.99C221.478 226.801 226.542 226.693 230.436 226.516C242.992 225.941 249.335 225.4 253.219 224.059C257.045 222.732 261.011 220.743 263.528 219.48C267.453 217.51 270.627 215.642 272.895 214.232C274.583 218.129 277.969 227.444 276.001 239.291C274.137 250.523 268.442 258.119 265.646 261.401Z" fill="#E6E6E6"/>
<path d="M256.787 380.315C263.782 377.676 275.018 372.512 283.251 363.6C285.783 360.858 288.118 357.689 288.294 357.419C292.002 351.896 293.027 347.317 297.231 340.998C311.626 319.345 330.939 325.359 351.599 305.13C368.753 288.336 372.75 267.243 373.346 263.858C377.902 237.94 363.989 228.349 371.793 205.88C377.514 189.405 386.467 190.329 389.397 175.908C393.338 156.535 381.967 131.329 361.437 122.843C344.339 115.778 326.641 122.686 317.425 126.283C282.019 140.099 281.465 166.361 253.219 170.012C249.942 170.435 239.296 169.801 218.01 168.538C199.499 167.437 194.606 166.632 186.943 168.538C176.142 171.226 171.797 176.326 158.464 186.718C126.507 211.623 115.866 209.643 113.417 220.62C110.585 233.301 123.778 238.672 127.858 259.342C131.125 275.9 126.237 290.572 122.012 299.853C149.092 296.645 161.732 287.285 168.209 278.765C177.389 266.693 173.703 256.984 183.996 249.353C196.247 240.273 209.295 248.228 229.023 244.219C240.699 241.846 256.471 234.933 272.89 214.233C276.411 224.202 276.494 232.117 275.997 237.325C274.707 250.818 267.904 262.949 227.843 304.148C219.237 313.001 211.926 320.283 206.701 325.423C223.395 343.72 240.088 362.017 256.782 380.315H256.787Z" fill="white"/>
<path d="M296.713 424.034C297.06 444.67 297.401 465.306 297.748 485.943H283.768C283.597 477.752 283.421 469.566 283.25 461.376C277.037 470.549 270.823 479.717 264.61 488.891C253.302 489.014 241.993 489.141 230.685 489.264C236.313 478.759 241.946 468.254 247.575 457.745C253.944 457.646 260.312 457.543 266.681 457.445C276.69 446.306 286.704 435.173 296.713 424.034Z" fill="black"/>
<path d="M238.721 434.352L240.274 499.209H227.848V467.763C220.769 478.41 213.696 489.053 206.618 499.7C190.396 499.862 174.169 500.029 157.946 500.191C165.024 491.347 172.097 482.503 179.176 473.659H207.136C217.663 460.555 228.194 447.456 238.721 434.352Z" fill="black"/>
<path d="M317.916 164.45C321.401 157.61 327.138 144.29 341.31 137.259C344.903 135.476 353.467 131.226 362.363 133.928C374.241 137.539 380.843 151.768 380.599 163.133C380.242 179.622 365.666 180.733 357.817 199.983C347.834 224.467 366.412 234.937 356.781 264.84C354.933 270.584 349.511 286.675 334.294 298.187C320.407 308.687 314.027 303.523 301.523 313.104C285.948 325.034 289.034 336.866 271.864 354.755C263.657 363.305 255.119 368.724 249.169 371.972C235.018 356.455 220.862 340.939 206.711 325.422C219.081 312.815 229.261 301.966 236.825 293.746C261.275 267.194 266.086 259.848 269.379 251.019C274.826 236.402 274.163 222.919 272.894 214.232C298.737 195.404 311.257 177.524 317.916 164.45Z" fill="#F2F2F2"/>
<path d="M231.172 51.3386C233.176 56.65 236.288 61.5781 240.269 65.7643C240.425 65.9265 240.59 66.1083 240.611 66.3245C240.647 66.6831 240.295 66.9583 239.985 67.1548C238.271 68.2407 236.453 69.1791 234.563 69.9653" stroke="#231F20" stroke-width="2" stroke-miterlimit="10" stroke-linecap="round"/>
<path d="M227.05 74.2205C229.536 76.0188 233.419 73.4835 233.424 73.4393C233.424 73.4246 233.424 73.4147 233.424 73.4147C233.424 73.4147 233.424 73.3902 233.419 73.3705C233.403 73.3214 229.561 72.3584 227.904 71.7196C227.309 71.4887 226.46 71.0907 225.518 70.3832C225.497 70.6731 225.373 73.0118 227.05 74.2205Z" fill="#AA0000"/>
<path d="M222.682 54.8892C224.775 53.1497 225.921 51.1422 225.24 50.4052C224.56 49.6683 222.312 50.481 220.219 52.2205C218.126 53.96 216.98 55.9675 217.66 56.7045C218.34 57.4415 220.589 56.6287 222.682 54.8892Z" fill="#FFF0C2"/>
<path d="M244.186 48.1454C244.25 47.1677 242.051 46.2415 239.274 46.0766C236.497 45.9117 234.194 46.5706 234.129 47.5483C234.065 48.526 236.264 49.4523 239.041 49.6171C241.818 49.782 244.121 49.1231 244.186 48.1454Z" fill="#FFF0C2"/>
<path d="M215.503 72.5056C218.071 72.5056 220.153 70.5302 220.153 68.0934C220.153 65.6566 218.071 63.6812 215.503 63.6812C212.935 63.6812 210.854 65.6566 210.854 68.0934C210.854 70.5302 212.935 72.5056 215.503 72.5056Z" fill="#FF9F9F"/>
<path d="M249.103 59.1069C249.175 60.743 249.165 62.276 249.103 63.6862C245.96 64.0989 243.226 62.0058 242.915 59.5245C242.579 56.8271 245.157 53.997 248.621 54.1051C248.844 55.6282 249.02 57.2988 249.103 59.1069Z" fill="#FF9F9F"/>
<path d="M228.443 85.0938C219.149 85.3739 210.409 80.7602 205.754 73.1199C206.525 72.8546 207.292 72.5942 208.063 72.3288C214.043 79.8562 223.679 83.5314 232.684 81.6938C242.17 79.7579 246.99 72.5057 247.901 71.0759C248.699 71.3069 249.496 71.5427 250.299 71.7736C246.162 79.6842 237.748 84.8138 228.448 85.0938H228.443Z" fill="#FEB781"/>
<path d="M119.242 205.167C119.594 205.939 119.977 206.735 120.391 207.55C120.935 208.616 121.494 209.614 122.048 210.547C128.728 206.941 135.93 202.956 143.029 197.9C147.016 195.06 151.003 192.22 154.99 189.385C143.076 194.648 131.156 199.91 119.242 205.167Z" fill="#FEB781"/>
<path d="M226 61.335C227.105 61.335 228 60.4853 228 59.4371C228 58.389 227.105 57.5393 226 57.5393C224.895 57.5393 224 58.389 224 59.4371C224 60.4853 224.895 61.335 226 61.335Z" fill="black"/>
<path d="M240 55.335C241.105 55.335 242 54.4853 242 53.4371C242 52.389 241.105 51.5393 240 51.5393C238.895 51.5393 238 52.389 238 53.4371C238 54.4853 238.895 55.335 240 55.335Z" fill="black"/>
<path d="M0.93219 119.596C0.813099 126.656 1.9367 136.183 8.41422 143.917C16.7817 153.901 27.5154 153.051 43.9396 159.733C49.2262 161.88 74.9343 172.051 86.9211 193.026C98.1312 212.636 86.7088 223.244 100.078 243.384C110.17 258.591 120.396 258.139 123.321 270.854C126.304 283.816 116.968 289.84 114.99 307.061C113.846 317.035 115.26 329.997 124.083 345.828C89.8155 329.761 76.3064 311.002 70.2535 297.077C53.4669 258.458 79.4132 223.376 56.2163 200.519C43.0697 187.568 31.9321 193.424 15.8651 177.21C0.978773 162.185 0.222806 139.136 0.0415803 133.51C-0.144823 127.722 0.393687 122.907 0.927007 119.596H0.93219Z" fill="#F2F2F2"/>
<path d="M196.454 64.8162C198.111 64.2365 199.752 63.6026 201.363 62.9197" stroke="#050505" stroke-width="3" stroke-miterlimit="10" stroke-linecap="round"/>
<path d="M35.2356 356.647C54.3109 347.936 64.7132 344.796 66.4426 347.224C68.3584 349.911 59.6544 359.414 40.3306 375.731C39.2381 372.596 38.1922 369.201 37.2394 365.56C36.4265 362.45 35.7689 359.473 35.2356 356.647Z" fill="#231F20"/>
<path d="M32.896 335.25C33.217 345.101 34.7704 358.853 40.1916 374.419C45.4213 389.439 52.4632 401.03 58.2054 409.014" stroke="black" stroke-width="4" stroke-linecap="round" stroke-linejoin="round"/>
<path d="M24.642 304.585C21.121 305.037 15.1199 323.772 25.7293 332.242C30.7674 336.266 38.3064 336.984 44.0331 334.615C57.2522 329.152 57.5836 308.594 54.5027 307.322C53.4723 306.894 51.308 308.319 46.7774 314.416C47.9786 309.768 47.5023 305.852 45.8712 305.199C44.1315 304.501 40.4034 307.233 37.6229 312.49C38.0837 307.656 37.4727 303.833 36.0385 303.489C34.5421 303.13 31.8806 306.486 29.7629 311.773C27.1895 305.641 25.6154 304.462 24.6368 304.585H24.642Z" fill="#D14E77"/>
<path d="M594.846 112.74C573.818 112.507 563.116 113.846 562.737 116.763C562.319 119.986 574.546 125.137 599.42 132.213C598.894 128.908 598.206 125.389 597.316 121.687C596.553 118.522 595.717 115.535 594.846 112.74Z" fill="#231F20"/>
<path d="M586.729 92.2684C591.134 101.387 596.306 114.561 598.919 130.959C601.443 146.776 600.724 160.205 599.45 169.808" stroke="black" stroke-width="4" stroke-linecap="round" stroke-linejoin="round"/>
<path d="M579.434 60.9535C582.764 59.9444 596.996 74.6066 591.642 86.6304C589.097 92.3381 582.767 96.0448 576.571 96.1992C562.268 96.5608 552.19 77.938 554.314 75.5311C555.022 74.7236 557.616 75.1476 564.525 78.8804C561.251 75.1233 559.807 71.3618 560.941 70.1071C562.146 68.769 566.749 69.7514 571.714 73.4239C569.005 69.1997 567.724 65.4636 568.832 64.5671C569.982 63.634 573.939 65.6216 578.326 69.5884C577.682 62.9553 578.516 61.2386 579.437 60.9599L579.434 60.9535Z" fill="#D14E77"/>
<path d="M440.031 150.176C454.405 150.176 468.784 150.176 483.158 150.176C482.34 164.248 480.403 180.512 476.432 198.318C473.092 213.294 468.914 226.668 464.59 238.274C454.648 238.549 444.707 238.829 434.765 239.104C427.113 234.063 419.465 229.022 411.812 223.98C412.47 208.366 413.516 192.161 415.027 175.426C416.115 163.374 417.394 151.641 418.828 140.246C425.896 143.558 432.958 146.865 440.026 150.176H440.031Z" fill="white"/>
<path d="M449.823 152.633C447.198 152.672 446.892 152.82 446.022 152.496C442.424 151.149 440.156 145.754 441.932 143.617C442.766 142.615 444.666 142.114 446.167 142.782C447.757 143.489 448.161 145.175 448.213 145.415C448.254 142.241 451.237 139.898 454.209 140.281C457.098 140.654 459.283 143.514 458.594 146.526C459.475 144.988 461.256 144.28 462.69 144.723C464.482 145.278 464.994 147.4 464.735 148.747C464.306 151.007 461.535 152.078 460.603 152.437C457.812 153.513 456.678 152.535 449.823 152.633Z" fill="#FFE292"/>
<path d="M426.341 142.507C423.716 142.546 423.41 142.693 422.541 142.369C418.942 141.023 416.674 135.628 418.45 133.491C419.284 132.488 421.184 131.987 422.686 132.655C424.275 133.363 424.679 135.048 424.731 135.289C424.772 132.115 427.755 129.771 430.727 130.154C433.616 130.528 435.801 133.387 435.112 136.399C435.993 134.861 437.774 134.154 439.208 134.596C441 135.151 441.512 137.274 441.253 138.62C440.824 140.88 438.053 141.951 437.121 142.31C434.331 143.386 433.197 142.408 426.341 142.507Z" fill="#FFE292"/>
<path d="M429.412 149.995C426.787 150.034 426.481 150.181 425.611 149.857C422.013 148.511 419.745 143.116 421.521 140.979C422.354 139.976 424.255 139.475 425.756 140.143C427.346 140.851 427.75 142.536 427.802 142.777C427.843 139.603 430.825 137.259 433.797 137.642C436.687 138.016 438.872 140.875 438.183 143.887C439.063 142.349 440.845 141.642 442.279 142.084C444.07 142.639 444.583 144.762 444.324 146.108C443.894 148.368 441.124 149.439 440.192 149.798C437.401 150.874 436.267 149.896 429.412 149.995Z" fill="#FFE292"/>
<path d="M438.085 150.968C435.46 151.007 435.154 151.154 434.284 150.83C430.685 149.484 428.418 144.089 430.194 141.951C431.027 140.949 432.928 140.448 434.429 141.116C436.019 141.824 436.423 143.509 436.474 143.75C436.516 140.576 439.498 138.232 442.47 138.615C445.36 138.989 447.545 141.848 446.856 144.86C447.736 143.322 449.517 142.615 450.952 143.057C452.743 143.612 453.256 145.735 452.997 147.081C452.567 149.341 449.797 150.412 448.865 150.771C446.074 151.847 444.94 150.869 438.085 150.968Z" fill="#FFE292"/>
<path d="M441.155 141.116C438.53 141.155 438.224 141.303 437.354 140.979C433.756 139.632 431.488 134.237 433.264 132.1C434.098 131.098 435.998 130.597 437.499 131.265C439.089 131.972 439.493 133.658 439.545 133.898C439.586 130.724 442.569 128.381 445.541 128.764C448.43 129.137 450.615 131.997 449.926 135.009C450.807 133.471 452.588 132.763 454.022 133.206C455.814 133.761 456.326 135.883 456.067 137.23C455.638 139.49 452.867 140.561 451.935 140.92C449.145 141.996 448.011 141.018 441.155 141.116Z" fill="#FFE292"/>
<path d="M448.591 134.179C445.965 134.218 445.66 134.365 444.79 134.041C441.191 132.695 438.923 127.3 440.699 125.163C441.533 124.16 443.433 123.659 444.935 124.327C446.525 125.035 446.928 126.72 446.98 126.961C447.022 123.787 450.004 121.443 452.976 121.826C455.866 122.2 458.051 125.059 457.362 128.071C458.242 126.533 460.023 125.826 461.458 126.268C463.249 126.823 463.762 128.946 463.503 130.292C463.073 132.552 460.303 133.623 459.371 133.982C456.58 135.058 455.446 134.08 448.591 134.179Z" fill="#FFE292"/>
<path d="M435.791 132.577C433.166 132.616 432.86 132.763 431.99 132.439C428.392 131.093 426.124 125.698 427.9 123.561C428.733 122.558 430.634 122.057 432.135 122.725C433.725 123.433 434.129 125.118 434.18 125.359C434.222 122.185 437.204 119.841 440.176 120.224C443.066 120.598 445.251 123.457 444.562 126.469C445.442 124.931 447.223 124.224 448.658 124.666C450.449 125.221 450.962 127.344 450.703 128.69C450.273 130.95 447.503 132.021 446.571 132.38C443.78 133.456 442.646 132.478 435.791 132.577Z" fill="#FFE292"/>
<path d="M422.634 137.294C420.008 137.333 419.703 137.48 418.833 137.156C415.234 135.81 412.966 130.415 414.742 128.278C415.576 127.275 417.476 126.774 418.978 127.442C420.568 128.15 420.971 129.835 421.023 130.076C421.065 126.902 424.047 124.558 427.019 124.941C429.908 125.315 432.094 128.174 431.405 131.186C432.285 129.648 434.066 128.941 435.501 129.383C437.292 129.938 437.805 132.061 437.546 133.407C437.116 135.667 434.346 136.738 433.414 137.097C430.623 138.173 429.489 137.195 422.634 137.294Z" fill="#FFE292"/>
<path d="M385.622 121.001C382.702 123.256 380.139 125.236 377.291 124.637C375.888 124.342 373.858 123.3 373.921 121.93C373.962 120.981 374.997 120.082 376.427 119.61C371.839 120.249 368.536 118.937 368.178 117.311C367.878 115.955 369.509 113.837 371.715 113.336C373.185 113.002 374.418 113.498 374.858 113.695C374.547 113.37 373.796 112.506 373.651 111.208C373.625 110.948 373.429 108.825 374.966 107.808C376.266 106.949 378.342 107.189 379.808 108.555C379.818 108.123 379.901 107.135 380.641 106.261C380.662 106.236 380.926 105.927 381.221 105.715C382.521 104.792 385.778 104.797 386.891 106.816C387.538 107.995 387.29 109.553 386.306 110.756C386.679 110.417 387.336 109.936 388.175 109.916C389.842 109.887 391.339 111.715 391.624 113.243C392.136 115.96 388.931 118.436 385.628 120.991L385.622 121.001Z" fill="#FFE292"/>
<path d="M344.489 184.782C341.124 183.185 338.162 181.784 337.566 179.077C337.271 177.746 337.432 175.559 338.778 175.043C339.71 174.69 340.999 175.215 342.035 176.257C339.534 172.552 339.43 169.157 340.844 168.174C342.025 167.359 344.727 167.894 346.115 169.594C347.042 170.729 347.073 171.997 347.063 172.459C347.244 172.056 347.767 171.049 348.953 170.395C349.191 170.263 351.148 169.221 352.758 170.13C354.12 170.901 354.747 172.793 354.032 174.626C354.451 174.454 355.435 174.12 356.58 174.4C356.616 174.409 357.015 174.508 357.341 174.68C358.765 175.427 360.101 178.242 358.62 180.035C357.755 181.082 356.155 181.509 354.591 181.151C355.068 181.332 355.808 181.706 356.165 182.423C356.885 183.853 355.741 185.902 354.395 186.776C351.997 188.339 348.3 186.59 344.484 184.782H344.489Z" fill="#FFE292"/>
<path d="M400.804 257.294C397.49 258.994 394.58 260.482 391.903 259.392C390.583 258.851 388.791 257.47 389.123 256.134C389.351 255.21 390.547 254.508 392.038 254.301C387.409 254.115 384.416 252.243 384.385 250.582C384.359 249.196 386.373 247.408 388.641 247.305C390.153 247.236 391.266 247.943 391.655 248.214C391.411 247.84 390.842 246.858 390.961 245.555C390.987 245.295 391.209 243.172 392.918 242.45C394.363 241.836 396.356 242.435 397.526 244.042C397.62 243.62 397.899 242.661 398.795 241.934C398.821 241.915 399.142 241.659 399.473 241.502C400.933 240.824 404.133 241.409 404.827 243.59C405.231 244.863 404.682 246.351 403.476 247.359C403.911 247.093 404.651 246.735 405.48 246.867C407.121 247.133 408.234 249.196 408.214 250.744C408.183 253.505 404.548 255.368 400.799 257.294H400.804Z" fill="#FFE292"/>
<path d="M416.731 146.28C414.106 146.32 413.8 146.467 412.931 146.143C409.332 144.796 407.064 139.402 408.84 137.264C409.674 136.262 411.574 135.761 413.076 136.429C414.665 137.136 415.069 138.822 415.121 139.063C415.162 135.888 418.145 133.545 421.117 133.928C424.006 134.301 426.191 137.161 425.502 140.173C426.383 138.635 428.164 137.928 429.598 138.37C431.39 138.925 431.902 141.048 431.643 142.394C431.214 144.654 428.444 145.725 427.511 146.084C424.721 147.16 423.587 146.182 416.731 146.28Z" fill="#FFE292"/>
<path d="M459.36 145.248C461.986 145.209 462.291 145.062 463.161 145.386C466.76 146.732 469.028 152.127 467.252 154.264C466.418 155.267 464.518 155.768 463.016 155.1C461.426 154.392 461.023 152.707 460.971 152.466C460.929 155.64 457.947 157.984 454.975 157.601C452.086 157.227 449.901 154.368 450.589 151.356C449.709 152.894 447.928 153.601 446.493 153.159C444.702 152.604 444.189 150.481 444.448 149.135C444.878 146.875 447.648 145.804 448.58 145.445C451.371 144.369 452.505 145.347 459.36 145.248Z" fill="#FFE292"/>
<path d="M440.839 144.275C443.464 144.236 443.77 144.089 444.639 144.413C448.238 145.759 450.506 151.154 448.73 153.292C447.896 154.294 445.996 154.795 444.495 154.127C442.905 153.419 442.501 151.734 442.449 151.493C442.408 154.667 439.425 157.011 436.453 156.628C433.564 156.254 431.379 153.395 432.068 150.383C431.187 151.921 429.406 152.628 427.972 152.186C426.18 151.631 425.668 149.508 425.927 148.162C426.356 145.902 429.127 144.831 430.059 144.472C432.85 143.396 433.983 144.374 440.839 144.275Z" fill="#FFE292"/>
<path d="M430.514 144.275C433.139 144.236 433.445 144.089 434.315 144.413C437.913 145.759 440.181 151.154 438.405 153.292C437.572 154.294 435.671 154.795 434.17 154.127C432.58 153.419 432.176 151.734 432.125 151.493C432.083 154.667 429.101 157.011 426.129 156.628C423.239 156.254 421.054 153.395 421.743 150.383C420.863 151.921 419.082 152.628 417.647 152.186C415.856 151.631 415.343 149.508 415.602 148.162C416.032 145.902 418.802 144.831 419.734 144.472C422.525 143.396 423.659 144.374 430.514 144.275Z" fill="#FFE292"/>
<path d="M484.473 171.122C472.242 172.002 460.007 172.881 447.777 173.756C436.52 169.132 425.264 164.509 414.007 159.88C412.107 173.476 410.206 187.071 408.306 200.666C420.195 206.125 432.088 211.579 443.977 217.038C455.43 215.696 466.883 214.355 478.332 213.014C480.377 199.05 482.427 185.081 484.473 171.117V171.122Z" fill="#D36370"/>
<path d="M117.766 12.6653C115.136 19.2984 112.505 25.9265 109.87 32.5596C104.889 34.1319 99.9076 35.7042 94.9316 37.2765L108.322 45.4278L116.394 62.885C118.693 57.2543 120.992 51.6236 123.291 45.9879C128.029 43.6884 132.772 41.389 137.509 39.0846C132.766 36.8048 128.029 34.525 123.286 32.2451C121.442 25.7202 119.604 19.1903 117.761 12.6653H117.766Z" fill="white"/>
<path d="M328.19 36.5393C327.016 39.4451 325.842 42.3487 324.666 45.2545C322.443 45.9433 320.22 46.6321 318 47.3208L323.975 50.8917L327.577 58.5393C328.603 56.0726 329.629 53.6059 330.655 51.1371C332.769 50.1298 334.886 49.1224 337 48.1129C334.883 47.1142 332.769 46.1155 330.653 45.1167C329.83 42.2583 329.01 39.3977 328.187 36.5393H328.19Z" fill="white"/>
<path d="M105.914 412.64C103.284 419.273 100.653 425.901 98.0178 432.534C93.0367 434.106 88.0555 435.679 83.0796 437.251L96.4696 445.402C99.1621 451.22 101.855 457.042 104.542 462.86C106.841 457.229 109.14 451.598 111.439 445.963C116.177 443.663 120.919 441.364 125.657 439.059C120.914 436.779 116.177 434.5 111.434 432.22C109.59 425.695 107.752 419.165 105.909 412.64H105.914Z" fill="white"/>
<path d="M270.6 119.939C269.938 119.694 269.28 119.448 268.617 119.202C267.463 111.714 265.904 103.671 263.823 95.1858C261.953 87.5799 259.867 80.4751 257.697 73.9158C258.427 74.1221 259.152 74.3334 259.882 74.5398C262.078 80.7749 264.185 87.6487 266.018 95.1269C268.203 104.04 269.653 112.368 270.6 119.935V119.939Z" fill="#FEB781"/>
<path d="M193.741 77.5613C194.952 77.0896 196.159 76.6228 197.37 76.1511C194.983 81.266 192.643 86.6216 190.38 92.2081C184.944 105.656 180.775 118.5 177.565 130.474C176.783 131.053 176.001 131.628 175.214 132.208C177.156 121.742 180.237 109.764 185.161 96.8905C187.859 89.8447 190.774 83.3984 193.736 77.5613H193.741Z" fill="#FEB781"/>
<path d="M445.975 30.3783C444.66 30.9581 442.056 28.9633 442.377 27.6219C442.646 26.4968 445.049 25.4797 446.333 26.4624C447.617 27.445 447.073 29.8919 445.975 30.3783Z" fill="white"/>
<path d="M433.217 26.4622C432.032 27.2533 429.096 25.7203 429.163 24.3445C429.22 23.1948 431.4 21.7896 432.845 22.5462C434.289 23.3029 434.206 25.7989 433.212 26.4622H433.217Z" fill="white"/>
<path d="M418.051 25.9219C417.186 26.4476 415.162 25.2733 415.255 24.3053C415.333 23.4897 416.922 22.566 417.922 23.1409C418.921 23.7206 418.781 25.4846 418.056 25.9219H418.051Z" fill="white"/>
<path d="M421.515 175.427L420.07 186.403" stroke="black" stroke-width="4" stroke-linecap="round" stroke-linejoin="round"/>
<path d="M425.859 183.018L424.425 193.911" stroke="black" stroke-width="4" stroke-linecap="round" stroke-linejoin="round"/>
</svg>
