<svg width="640" height="556" viewBox="0 0 640 556" fill="none" xmlns="http://www.w3.org/2000/svg">
<path d="M149.132 0L177.667 80.6381L239.624 62.3674L218.022 120.83L316 149.249L218.022 177.669L263.152 267.134L177.667 217.86L149.132 314L120.597 217.86L0 294.893L80.2419 177.669L0 149.249L80.2419 120.83L0 23.4328L120.597 80.6381L149.132 0Z" fill="white"/>
<path d="M639.279 523.058C637.792 548.442 437.253 555.858 339.768 555.998C235.806 556.144 31.8632 548.323 30.3967 522.578C29.104 499.897 184.948 462.859 339.768 463.723C489.438 464.561 640.582 500.843 639.279 523.058Z" fill="#B2CACC"/>
<path d="M449.57 323.241C439.369 334.243 420.947 331.356 389.594 330.286C364.883 329.44 367.967 330.944 315.287 329.414C291.144 328.711 273.554 327.901 267.131 317.105C262.758 309.751 263.609 301.516 263.609 301.516C263.609 301.516 264.352 294.296 269.517 287.811C278.204 276.899 297.8 276.608 322.869 276.554C354.504 276.487 370.769 276.478 392.597 277.579C430.758 279.499 446.651 281.63 453.226 292.099C457.693 299.215 457.277 306.748 457.277 306.748C457.277 306.748 456.794 315.453 449.574 323.241H449.57Z" fill="#4D4D4D"/>
<path d="M271.075 481.153C270.712 481.56 266.98 485.57 261.237 484.953C255.889 484.375 253.127 480.244 252.773 479.698C253.619 468.079 254.465 456.46 255.311 444.84C263.099 444.719 270.892 444.599 278.679 444.478C276.142 456.701 273.608 468.929 271.071 481.153H271.075Z" fill="#333333"/>
<path d="M215.293 356.747H265.726V243.397L215.293 258.955V356.747Z" fill="#666666"/>
<path d="M266.666 223.57C246.001 234.464 225.336 245.358 204.672 256.256C198.432 297.841 192.26 339.435 186.151 381.038C179.374 427.197 172.678 473.364 166.063 519.546C166.954 520.423 171.6 524.814 178.824 524.751C185.076 524.698 189.243 521.345 190.362 520.383C196.409 495.444 202.452 470.504 208.498 445.565C246.946 444.97 285.393 444.37 323.844 443.775C325.353 468.947 326.861 494.123 328.365 519.295C329.493 520.24 333.481 523.337 339.438 523.426C344.8 523.507 348.582 521.099 349.849 520.204C350.57 494.857 351.29 469.511 352.011 444.169C358.926 444.16 365.836 444.155 372.752 444.146C373.508 423.844 374.264 403.546 375.021 383.244C375.021 383.244 378.615 379.883 380.307 376.875C382.567 372.856 381.985 368.501 381.829 367.44C381.005 361.868 377.062 356.64 371.373 354.545C366.396 352.715 361.956 353.972 360.412 354.496C343.225 355.369 325.55 355.973 307.405 356.259C278.983 356.711 251.641 356.349 225.471 355.36C225.045 324.589 224.62 293.817 224.195 263.046C234.055 258.427 243.92 253.813 253.78 249.194C258.072 240.654 262.369 232.109 266.662 223.57H266.666Z" fill="#050505"/>
<path d="M330.845 86.2694C329.063 86.2068 297.451 85.5533 280.205 107.507C270.721 119.583 276.808 124.206 266.25 146.138C254.617 170.294 243.105 173.252 241.436 189.508C239.766 205.76 249.604 219.067 251.69 221.882C279.028 258.852 363.178 258.727 391.031 221.188C393.309 218.118 404.566 202.945 402.202 185.064C400.336 170.956 391.81 168.938 385.449 150.139C378.337 129.116 386.224 123.419 379.116 110.452C366.799 87.9792 332.836 86.3366 330.849 86.265L330.845 86.2694Z" fill="#050505"/>
<path d="M448.344 468.329C448.765 484.031 449.185 499.732 449.606 515.433C452.623 515.581 455.756 515.67 458.987 515.692C461.359 515.706 463.678 515.683 465.934 515.625C465.746 508.612 465.558 501.598 465.37 494.589C470.539 501.786 475.704 508.983 480.874 516.18L520.476 516.503C525.377 516.341 530.9 515.455 532.247 512.224C534.073 507.837 526.818 501.325 516.072 491.187C508.866 484.384 498.786 474.734 486.715 462.703C473.923 464.579 461.131 466.454 448.339 468.329H448.344Z" fill="#050505"/>
<path d="M392.91 481.6C392.691 497.279 392.476 512.962 392.257 528.641C395.274 528.806 398.402 528.914 401.638 528.954C404.01 528.981 406.329 528.972 408.585 528.927C408.437 521.914 408.289 514.9 408.141 507.886C413.271 515.115 418.396 522.339 423.525 529.567C436.724 529.751 449.928 529.93 463.127 530.113C468.028 529.979 473.56 529.124 474.921 525.902C476.594 521.941 470.861 516.109 458.861 504.771C451.705 498.008 442.202 489.187 430.735 478.968C418.127 479.846 405.519 480.723 392.91 481.6Z" fill="#050505"/>
<path d="M377.689 303.982L456.235 311.071C460.576 310.991 466.78 311.55 472.661 315.046C488.72 324.593 490.985 347.692 493.29 377.98C496.056 414.319 497.873 445.296 499.099 469.488C495.452 471.789 489.445 474.913 481.46 476.256C468.718 478.399 458.526 474.734 454.162 472.854C454.055 476.26 453.947 479.662 453.84 483.068C446.146 486.492 431.479 491.813 412.412 491.406C393.336 490.994 378.906 485.042 371.369 481.286C372.586 448.608 373.804 415.926 375.021 383.248C382.375 377.618 383.977 367.471 379.322 360.601C375.415 354.831 367.667 352.226 360.416 354.496C351.671 354.831 342.921 355.172 334.175 355.507C348.681 338.334 363.187 321.155 377.693 303.982H377.689Z" fill="#D36370"/>
<path d="M382.867 386.136C372.667 397.137 354.244 394.25 322.891 393.181C298.18 392.335 301.264 393.839 248.584 392.308C224.441 391.605 206.851 390.795 200.429 379.999C196.056 372.646 196.906 364.41 196.906 364.41C196.906 364.41 197.649 357.191 202.814 350.705C211.502 339.793 231.097 339.502 256.166 339.448C287.801 339.381 304.066 339.372 325.894 340.473C364.055 342.394 379.949 344.524 386.524 354.993C390.991 362.109 390.574 369.642 390.574 369.642C390.574 369.642 390.091 378.348 382.871 386.136H382.867Z" fill="#333333"/>
<path d="M459.041 198.219C468.896 180.32 478.752 162.417 488.608 144.518C490.116 141.604 493.67 140.879 495.72 142.365C497.38 143.564 498.011 146.178 496.892 148.461C499.511 144.245 502.129 140.024 504.748 135.808C505.038 135.477 506.538 133.825 508.928 133.736C511.224 133.651 513.431 135.043 514.536 137.28C513.381 139.756 512.222 142.235 511.067 144.71C512.222 142.235 513.381 139.756 514.536 137.28C516.523 135.096 519.719 134.899 521.594 136.497C523.027 137.715 523.559 139.859 522.91 141.868C521.254 144.898 519.598 147.928 517.938 150.959C519.146 148.269 522.279 147.499 524.07 148.707C525.533 149.696 526.146 152.042 525.126 154.123C522.758 158.25 520.386 162.376 518.018 166.503C519.634 164.31 522.252 163.491 524.016 164.27C526.281 165.272 527.538 169.112 525.368 172.326C514.563 188.484 503.758 204.641 492.954 220.799C481.648 213.275 470.346 205.747 459.041 198.223V198.219Z" fill="#FDCFAE"/>
<path d="M368.415 320.135C374.157 319.911 381.48 319.732 389.997 319.786C410.42 319.925 415.223 321.281 416.745 324.486C417.729 326.553 417.595 329.919 415.648 331.718C413.406 333.795 409.789 332.828 409.351 332.708C410.461 334.646 411.978 337.604 413.236 341.4C415.935 349.555 418.602 365.135 411.933 369.221C409.449 370.743 405.788 370.6 403.34 369.154C398.627 366.366 400.52 359.988 395.834 355.986C393.752 354.209 391.344 353.731 384.693 353.525C378.749 353.341 370.487 353.404 360.412 354.5C361.549 348.552 362.847 342.398 364.342 336.06C365.64 330.564 367.001 325.255 368.415 320.14V320.135Z" fill="#FDCFAE"/>
<path d="M473.288 172.349C473.543 172.944 474.04 173.861 474.975 174.667C476.962 176.381 479.384 176.243 479.943 176.198C479.818 176.815 479.2 180.172 481.358 183.35C483.752 186.882 487.637 187.356 488.188 187.414C488.129 187.607 487.002 191.527 489.745 194.571C491.594 196.621 494.467 197.462 497.166 196.751C497.797 198.237 498.424 199.727 499.055 201.213C506.122 199.253 508.714 197.18 509.761 195.654C509.936 195.403 511.014 193.783 512.2 192.015C513.019 190.784 513.691 189.782 514.121 189.137C510.764 185.087 505.487 179.631 497.882 174.743C489.812 169.556 482.217 166.991 476.967 165.657C475.74 167.886 474.51 170.12 473.283 172.349H473.288Z" fill="#FFB583"/>
<path d="M368.415 320.135C367.403 321.464 365.962 323.702 365.067 326.786C364.1 330.13 364.199 332.994 364.387 334.704C364.185 334.735 360.166 335.429 358.622 339.229C357.583 341.785 358.076 344.739 359.893 346.86C358.828 348.073 357.763 349.291 356.697 350.504C357.933 351.833 359.172 353.167 360.408 354.496C362.467 354.312 364.53 354.133 366.589 353.95C368.719 350.418 371.615 344.663 373.061 337.031C374.404 329.937 373.983 323.931 373.397 319.979C371.732 320.032 370.071 320.086 368.406 320.14L368.415 320.135Z" fill="#FFB583"/>
<path d="M368.034 314.424C374.712 314.446 384.075 314.67 395.22 315.606C423.95 318.014 438.313 319.218 446.665 326.603C454.932 333.912 456.413 344.358 456.207 387.111C456.113 406.738 455.666 431.565 454.35 460.429" stroke="black" stroke-width="3" stroke-linecap="round" stroke-linejoin="round"/>
<path d="M325.72 167.904C314.141 170.505 285.693 178.593 263.949 204.472C247.8 223.686 243.642 242.838 238.374 267.093C231.79 297.403 223.604 335.085 242.183 350.956C248.687 356.51 255.911 357.204 293.574 356.542C320.537 356.067 343.328 355.244 360.416 354.496C362.909 349.998 365.912 343.329 367.461 334.807C368.491 329.154 368.616 324.141 368.414 320.136C372.067 319.522 377.621 318.139 383.601 314.715C388.905 311.681 392.611 308.145 394.947 305.535C395.068 303.042 395.189 300.545 395.314 298.052C419.193 294.153 435.789 285.591 445.43 279.576C462.527 268.905 473.171 256.606 488.272 239.141C499.963 225.62 508.709 213.486 514.684 204.615C512.719 200.085 506.838 188.148 493.249 179.6C480.525 171.592 468.135 171.019 463.132 171.06L404.991 228.068C401.41 219.372 390.614 196.518 365.21 181.166C349.647 171.762 334.756 168.889 325.72 167.904Z" fill="white"/>
<path d="M361.66 313.104C344.034 313.932 328.987 314.258 317.282 314.379C293.583 314.625 283.794 314.03 280.388 307.88C278.611 304.671 279.475 299.819 281.207 290.116C282.676 281.894 284.703 275.238 286.314 270.642" stroke="black" stroke-width="3" stroke-linecap="round" stroke-linejoin="round"/>
<path d="M292.062 144.75C297.685 144.75 302.244 140.192 302.244 134.568C302.244 128.944 297.685 124.385 292.062 124.385C286.438 124.385 281.879 128.944 281.879 134.568C281.879 140.192 286.438 144.75 292.062 144.75Z" fill="#FDCFAE"/>
<path d="M297.034 112.306C293.257 140.257 299.049 163.836 311.724 172.111C319.785 177.375 327.658 177.258 327.658 177.258C336.081 177.138 342.101 172.622 345.154 170.334C357.588 161.007 366.817 136.054 368.665 103.896C344.787 106.697 320.913 109.504 297.034 112.306Z" fill="#FDCFAE"/>
<path d="M287 134.568H298.494" stroke="black" stroke-width="4" stroke-linecap="round" stroke-linejoin="round"/>
<path d="M343.153 113.084C340.311 115.792 331.301 123.67 317.202 125.218C305.467 126.507 296.452 122.734 292.746 120.926C293.136 116.768 294.326 110.896 298.162 105.431C313.295 83.8618 358.823 84.09 369.108 101.881C370.876 104.943 372.349 109.813 370.787 117.565C367.537 118.366 361.531 119.373 354.356 117.753C349.397 116.634 345.615 114.646 343.153 113.084Z" fill="#050505"/>
<path d="M254.349 103.063C254.407 109.553 292.697 116.146 328.029 114.866C366.579 113.469 406.996 102.508 406.428 95.5169C406.141 91.9766 395.207 87.8722 346.792 85.7731C346.975 82.9444 346.77 78.3209 343.838 74.5612C337.276 66.1511 320.273 66.2138 313.734 75.2012C310.117 80.1738 310.824 86.3326 311.258 88.7808C264.732 94.8635 254.317 99.666 254.349 103.059V103.063Z" fill="#DB8AA9"/>
<path d="M292.362 113.733C291.1 120.729 289 137.813 297.455 154.651C298.887 157.502 303.976 167.51 312.346 172.796C317.484 176.041 324.359 178.346 325.639 178.767C330.442 180.347 331.064 180.007 334.336 181.117C344.715 184.639 349.845 192.593 350.306 192.172C350.82 191.702 345.543 181.059 335.437 175.486C333.678 174.515 328.047 171.713 321.293 167.452C320.421 166.902 319.655 166.396 318.805 165.827C318.805 165.827 313.407 161.781 309.37 156.938C297.916 143.198 302.705 118.536 303.52 114.588C299.8 114.302 296.077 114.02 292.357 113.733H292.362Z" fill="#DB8AA9"/>
<path d="M371.275 101.492C371.414 106.116 371.365 112.386 370.595 119.767C369.937 126.082 369.239 132.886 366.481 141.448C362.95 152.405 358.197 159.566 357.216 161.02C355.287 163.876 352.28 168.244 347.079 172.747C342.254 176.923 337.832 179.255 336.064 180.132C333.226 181.542 332.568 181.533 329.735 182.773C320.125 186.971 314.992 192.597 314.611 192.177C314.244 191.769 318.537 185.946 325.738 180.736C333.383 175.209 335.997 176.386 342.809 171.051C348.202 166.826 351.317 162.377 353.466 159.275C358.626 151.832 360.905 145.154 362.265 141.076C365.036 132.756 365.734 126.176 366.481 119.306C367.354 111.312 367.417 104.5 367.26 99.4199C368.598 100.109 369.937 100.798 371.279 101.488L371.275 101.492Z" fill="#DB8AA9"/>
<path d="M345.485 129.779C345.489 130.925 345.588 152.346 345.194 153.828C345.024 154.468 344.621 154.808 344.621 154.808C344.209 155.153 343.717 155.197 343.489 155.211C342.517 155.282 339.814 155.363 336.175 155.381" stroke="#231F20" stroke-width="2" stroke-miterlimit="10" stroke-linecap="round"/>
<path d="M355.39 136.475C356.013 136.475 356.518 135.97 356.518 135.347C356.518 134.724 356.013 134.219 355.39 134.219C354.767 134.219 354.262 134.724 354.262 135.347C354.262 135.97 354.767 136.475 355.39 136.475Z" fill="black" stroke="#231F20" stroke-width="4" stroke-miterlimit="10"/>
<path d="M335.311 137.603C335.934 137.603 336.439 137.098 336.439 136.475C336.439 135.852 335.934 135.347 335.311 135.347C334.689 135.347 334.184 135.852 334.184 136.475C334.184 137.098 334.689 137.603 335.311 137.603Z" fill="black" stroke="#231F20" stroke-width="4" stroke-miterlimit="10"/>
<path d="M333.782 128.914C337.02 127.924 339.385 126.27 339.064 125.22C338.743 124.171 335.858 124.123 332.619 125.114C329.381 126.104 327.016 127.758 327.337 128.808C327.658 129.857 330.544 129.905 333.782 128.914Z" fill="#050505"/>
<path d="M361.24 127.936C361.561 126.886 359.196 125.232 355.957 124.242C352.719 123.251 349.834 123.299 349.513 124.348C349.191 125.398 351.556 127.052 354.795 128.042C358.033 129.033 360.919 128.985 361.24 127.936Z" fill="#050505"/>
<path d="M326.284 157.923C326.458 158.599 327.062 160.555 328.956 162.018C331.677 164.118 334.841 163.478 335.311 163.375" stroke="#231F20" stroke-width="3" stroke-miterlimit="10" stroke-linecap="round"/>
<path d="M314.589 154.593C318.952 154.593 322.489 151.056 322.489 146.693C322.489 142.33 318.952 138.793 314.589 138.793C310.226 138.793 306.689 142.33 306.689 146.693C306.689 151.056 310.226 154.593 314.589 154.593Z" fill="#FF8D9E"/>
<path d="M348.341 209.091C351.219 209.091 351.228 204.615 348.341 204.615C345.454 204.615 345.454 209.091 348.341 209.091Z" fill="black"/>
<path d="M371.337 187.298C374.215 187.298 374.224 182.822 371.337 182.822C368.45 182.822 368.45 187.298 371.337 187.298Z" fill="black"/>
<path d="M287.008 209.091C289.886 209.091 289.895 204.615 287.008 204.615C284.122 204.615 284.122 209.091 287.008 209.091Z" fill="black"/>
<path d="M307.911 247.144C310.788 247.144 310.797 242.668 307.911 242.668C305.024 242.668 305.024 247.144 307.911 247.144Z" fill="black"/>
<path d="M267.996 272.88C270.874 272.88 270.883 268.404 267.996 268.404C265.109 268.404 265.109 272.88 267.996 272.88Z" fill="black"/>
<path d="M240.514 318.51C243.392 318.51 243.401 314.035 240.514 314.035C237.627 314.035 237.627 318.51 240.514 318.51Z" fill="black"/>
<path d="M302.24 298.11C305.118 298.11 305.127 293.634 302.24 293.634C299.353 293.634 299.353 298.11 302.24 298.11Z" fill="black"/>
<path d="M327.623 335.067C330.501 335.067 330.51 330.591 327.623 330.591C324.736 330.591 324.736 335.067 327.623 335.067Z" fill="black"/>
<path d="M421.753 256.207C424.631 256.207 424.639 251.731 421.753 251.731C418.866 251.731 418.866 256.207 421.753 256.207Z" fill="black"/>
<path d="M392.257 234.191C395.135 234.191 395.144 229.715 392.257 229.715C389.371 229.715 389.371 234.191 392.257 234.191Z" fill="black"/>
<path d="M440.681 209.091C443.559 209.091 443.568 204.615 440.681 204.615C437.794 204.615 437.794 209.091 440.681 209.091Z" fill="black"/>
<path d="M489.262 225.808C492.14 225.808 492.149 221.332 489.262 221.332C486.375 221.332 486.375 225.808 489.262 225.808Z" fill="black"/>
<path d="M465.199 185.673C468.077 185.673 468.086 181.197 465.199 181.197C462.312 181.197 462.312 185.673 465.199 185.673Z" fill="black"/>
<path d="M448.344 267.983C451.222 267.983 451.231 263.508 448.344 263.508C445.457 263.508 445.457 267.983 448.344 267.983Z" fill="black"/>
<path d="M448.344 233.533C451.222 233.533 451.231 229.057 448.344 229.057C445.457 229.057 445.457 233.533 448.344 233.533Z" fill="black"/>
<path d="M412.13 288.908C415.008 288.908 415.017 284.432 412.13 284.432C409.243 284.432 409.243 288.908 412.13 288.908Z" fill="black"/>
<path d="M500.84 197.485C503.718 197.485 503.727 193.009 500.84 193.009C497.953 193.009 497.953 197.485 500.84 197.485Z" fill="black"/>
<path d="M356.522 256.207C359.4 256.207 359.409 251.731 356.522 251.731C353.635 251.731 353.635 256.207 356.522 256.207Z" fill="black"/>
<path d="M368.034 294.037C370.912 294.037 370.921 289.561 368.034 289.561C365.148 289.561 365.148 294.037 368.034 294.037Z" fill="black"/>
<path d="M285.353 350.812C288.23 350.812 288.239 346.337 285.353 346.337C282.466 346.337 282.466 350.812 285.353 350.812Z" fill="black"/>
<path d="M295.893 181.618C298.771 181.618 298.78 177.142 295.893 177.142C293.006 177.142 293.006 181.618 295.893 181.618Z" fill="black"/>
<path d="M255.208 219.407C258.086 219.407 258.095 214.932 255.208 214.932C252.321 214.932 252.321 219.407 255.208 219.407Z" fill="black"/>
<path d="M414.499 325.545C414.55 324.468 413.533 323.545 412.227 323.482C410.921 323.419 409.82 324.241 409.769 325.317C409.717 326.394 410.734 327.317 412.04 327.38C413.346 327.443 414.447 326.621 414.499 325.545Z" fill="white" stroke="white" stroke-miterlimit="10"/>
</svg>
