<svg width="627" height="546" viewBox="0 0 627 546" fill="none" xmlns="http://www.w3.org/2000/svg">
<path d="M315.554 47.802C423.996 115.494 452.973 107.943 462.573 98.838C472.459 89.4617 476.628 64.3582 464.726 51.4849C454.926 40.8842 437.974 42.6279 434.048 43.1234C431.995 39.0118 423.748 23.6943 405.701 17.0099C387.334 10.2064 365.98 14.9946 350.386 29.1543C333.296 14.3991 311.29 12.0883 297.521 21.8886C288.426 28.3634 285.3 38.4305 284.204 43.1187C294.657 44.6766 305.11 46.2393 315.563 47.7973L315.554 47.802Z" fill="#95CCF4"/>
<path d="M264.189 135.781C268.11 128.72 283.437 101.139 271.646 76.9507C257.252 47.4211 208.075 34.5335 180.951 55.8397C165.796 67.7411 162.418 86.4746 161.512 93.7212C145.094 83.516 124.817 84.6404 111.806 95.87C97.9606 107.819 98.4466 125.924 98.5561 128.425C83.1625 130.455 71.0514 139.335 67.8831 151.027C63.8715 165.839 75.873 179.027 77.5691 180.89C97.0554 202.296 134.865 196.055 158.282 192.191C188.198 187.251 240.372 178.637 264.185 135.776L264.189 135.781Z" fill="#95CCF4"/>
<path d="M445.545 454.203H179.732C180.137 321.415 180.546 188.628 180.951 55.8398C180.951 48.8124 186.645 43.119 193.672 43.119H434.049C441.076 43.119 446.77 48.8124 446.77 55.8398C446.365 188.628 445.955 321.415 445.55 454.203H445.545Z" fill="#E8E8E8"/>
<path d="M453.64 403.09C420.585 430.038 392.909 436.241 374.642 437.346C314.321 441 282.132 393.547 222.163 401.166C195.269 404.582 174.92 417.536 163.047 426.617" stroke="white" stroke-width="12" stroke-linecap="round" stroke-linejoin="round"/>
<path d="M137.915 545.541C151.855 515.111 165.796 484.681 179.741 454.251H445.56C458.881 484.719 472.202 515.187 485.523 545.655C369.654 545.617 253.784 545.579 137.915 545.541Z" fill="#A7A9AC"/>
<path d="M336.388 84.5735C340.452 81.1193 342.144 75.6974 340.695 70.8521C338.975 65.1063 333.139 61.1709 326.707 61.7045C327.164 63.2339 327.584 65.5493 326.44 67.355C323.725 71.6382 315.844 67.3026 308.145 71.9288C303.586 74.6683 300.036 79.9854 299.603 85.5168C299.445 87.5083 299.722 89.1758 299.993 90.3098C300.451 90.1621 302.423 89.576 304.586 90.5575C307.016 91.6628 307.826 93.9069 307.959 94.2928C309.122 93.5162 310.351 92.7539 311.647 92.0202C320.418 87.0652 329.213 85.1833 336.393 84.5782L336.388 84.5735Z" fill="#050505"/>
<path d="M496.264 291.471C558.415 297.955 608.708 284.739 621.61 254.79C626.493 243.46 630.209 220.02 616.793 209.681C606.855 202.02 589.922 203.416 574.795 213.24C563.585 198.69 544.856 192.191 527.471 196.765C511.529 200.957 499.104 213.826 495.187 230.125C484.248 213.288 464.457 206.656 448.911 212.906C434.608 218.657 427.276 233.955 427.386 246.267C427.567 266.834 448.587 287.636 479.227 290.423C484.906 290.771 490.585 291.118 496.259 291.466L496.264 291.471Z" fill="#95CCF4"/>
<path d="M307.731 85.3834C303.852 95.7793 305.086 105.823 310.261 110.673C314.096 114.27 318.689 115.246 318.689 115.246C318.689 115.246 322.486 116.242 325.711 115.246C332.953 113.017 337.16 100.544 336.388 84.5735C326.836 84.8403 317.283 85.1119 307.731 85.3787V85.3834Z" fill="#FECEAA"/>
<path d="M301.98 103.164C305.496 103.164 308.346 100.212 308.346 96.5701C308.346 92.9284 305.496 89.9762 301.98 89.9762C298.465 89.9762 295.615 92.9284 295.615 96.5701C295.615 100.212 298.465 103.164 301.98 103.164Z" fill="#FECEAA"/>
<path d="M357.433 128.405C359.734 122.24 362.035 116.075 364.337 109.915C364.694 108.509 366.18 107.733 367.443 108.171C368.62 108.581 369.311 109.934 368.901 111.216C367.953 114.017 367.009 116.814 366.061 119.615C366.495 119.849 366.929 120.077 367.367 120.311C369.03 116.633 370.688 112.959 372.35 109.281C372.96 108.171 374.28 107.666 375.442 108.066C376.667 108.49 377.401 109.82 377.081 111.125C375.238 114.76 373.389 118.396 371.545 122.026C371.907 122.212 372.265 122.398 372.627 122.583C374.947 119.034 377.267 115.484 379.587 111.935C380.507 110.768 382.098 110.525 383.123 111.197C384.318 111.983 384.638 113.946 383.461 115.27C381.102 118.8 378.739 122.326 376.381 125.857C376.538 126.052 376.691 126.247 376.848 126.443C379.135 124.275 381.426 122.112 383.713 119.944C384.666 119.053 386.11 119.058 386.963 119.834C387.93 120.716 387.944 122.421 386.829 123.408C384.447 125.571 382.065 127.734 379.678 129.897C379.869 130.173 380.054 130.445 380.245 130.721C381.426 129.906 382.608 129.096 383.785 128.282C384.904 127.505 386.362 127.596 387.22 128.386C388.282 129.368 388.306 131.316 387.01 132.484C383.17 136.014 379.335 139.549 375.495 143.08C369.477 138.187 363.46 133.289 357.443 128.396L357.433 128.405Z" fill="#FECEAA"/>
<path d="M358.643 125.171C361.24 125.847 364.727 127.067 368.41 129.373C373.946 132.832 377.301 137.091 379.097 139.783C378.315 140.502 377.534 141.217 376.753 141.936C375.238 139.421 372.274 135.266 367.157 131.841C363.593 129.454 360.192 128.229 357.752 127.572C358.052 126.771 358.348 125.976 358.648 125.175L358.643 125.171Z" fill="#FEB781"/>
<path d="M359.086 170.971C354.193 166.058 348.814 159.879 343.654 152.289C340.572 147.759 338.008 143.375 335.884 139.292C338.075 138.087 340.395 136.677 342.787 135.019C346.846 132.212 350.224 129.316 352.988 126.633C355.951 126.981 361.487 128.034 367.157 131.836C374.613 136.829 377.843 143.58 378.996 146.363C377.615 150.379 374.828 156.754 369.129 162.866C365.594 166.664 361.968 169.251 359.086 170.966V170.971Z" fill="#4B5544"/>
<path d="M415.763 200.357C417.116 209.619 415.02 214.993 412.742 218.228C408.759 223.884 404.157 223.069 400.021 229.325C395.748 235.799 398.463 240.021 394.776 245.066C392.413 248.301 387.524 251.727 376.3 252.017C356.661 214.412 339.995 172.39 328.856 125.833C327.974 122.15 327.136 118.482 326.345 114.827C326.817 114.656 327.346 114.422 327.889 114.098C329.323 113.255 330.257 112.183 330.814 111.411C331.305 111.764 331.948 112.331 332.443 113.184C333.83 115.57 332.92 118.167 332.758 118.61C338.013 127.286 355.341 155.443 374.503 177.936C379.792 184.144 386.772 191.681 398.177 196.412C405.191 199.319 411.527 200.133 415.753 200.357H415.763Z" fill="#4B5544"/>
<path d="M340.053 331.868C347.166 332.273 372.694 334.193 375.566 345.322C376.281 348.086 375.362 350.516 374.761 352.05C363.136 381.622 343.283 407.202 343.283 407.202C338.214 413.734 331.944 421.69 324.631 430.7C319.19 420.447 313.749 410.194 308.308 399.941C318.89 377.253 329.471 354.56 340.058 331.873L340.053 331.868Z" fill="#FECEAA"/>
<path d="M375.404 314.073C382.985 319.943 397.635 333.116 397.468 350.664C397.444 353.289 397.397 355.514 396.663 357.391C385.038 386.963 365.185 412.543 365.185 412.543C362.65 415.812 359.815 419.432 356.699 423.363C356.699 423.363 354.617 425.983 346.532 436.041C341.091 425.788 335.651 415.535 330.21 405.282C345.275 374.881 360.344 344.479 375.409 314.078L375.404 314.073Z" fill="#FECEAA"/>
<path opacity="0.52" d="M403.428 482.045C397.12 474.36 371.211 487.848 324.282 485.404C292.685 483.76 282.523 476.504 262.403 482.164C242.697 487.71 227.146 501.794 230.653 507.254C234.684 513.528 260.097 502.542 305.987 504.014C349.071 505.4 366.523 516.368 386.162 506.849C399.293 500.483 407.983 487.591 403.428 482.041V482.045Z" fill="#939598"/>
<path d="M308.308 399.936C311.033 404.944 313.758 409.956 316.483 414.963C319.275 426.493 322.234 444.593 319.623 466.442C318.313 477.386 316.44 493.08 311.929 493.637C307.474 494.19 299.36 480.135 283.257 412.81C291.609 408.517 299.956 404.224 308.308 399.932V399.936Z" fill="#050505"/>
<path d="M359.592 345.985L329.128 407.026" stroke="white" stroke-width="4" stroke-linecap="round" stroke-linejoin="round"/>
<path d="M329.719 403.71C335.322 414.487 340.925 425.264 346.527 436.041C342.311 455.179 338.095 474.323 333.873 493.461C332.739 498.006 331.382 500.36 329.8 500.522C323.973 501.122 315.097 472.064 303.162 413.353C312.014 410.142 320.862 406.926 329.714 403.715L329.719 403.71Z" fill="#050505"/>
<path d="M408.764 326.446C403.771 332.74 390.688 347.462 368.329 354.503C336.412 364.556 309.499 351.43 303.834 348.51C308.879 318.442 313.929 288.374 318.975 258.306C326.869 258.725 337.67 258.497 350.11 255.776C362.574 253.051 372.503 248.739 379.506 245.052C389.259 272.185 399.012 299.313 408.759 326.446H408.764Z" fill="#FFBDDD"/>
<path d="M326.35 114.827C327.088 117.409 328.227 121.206 329.79 125.728C343.592 165.815 365.342 190.852 369.758 195.826C376.161 203.039 385.547 212.487 398.411 222.059C394.985 228.976 388.439 239.344 376.619 247.081C365.999 254.032 355.832 255.771 346.889 257.305C342.239 258.101 331.615 259.931 318.984 258.311C294.319 255.147 277.425 241.997 270.03 235.38C282.327 192.5 294.624 149.621 306.926 106.742C308.288 108.686 310.732 111.525 314.587 113.421C316.697 114.46 318.47 114.841 318.999 114.946C322.148 115.575 324.792 115.184 326.355 114.827H326.35Z" fill="white"/>
<path d="M270.035 333.216C273.37 336.213 278.444 340.12 285.362 343.307C292.661 346.671 299.26 347.971 303.838 348.51C308.884 318.442 313.934 288.374 318.979 258.306C310.704 256.805 302.428 255.304 294.152 253.804C286.115 280.274 278.073 306.745 270.035 333.216Z" fill="#FFBDDD"/>
<path d="M318.98 254.59L304.458 345.104" stroke="white" stroke-width="4" stroke-linecap="round" stroke-linejoin="round"/>
<path d="M332.516 258.907C330.805 258.964 329.004 258.978 327.127 258.926C326.007 258.897 324.921 258.845 323.863 258.778C316.803 250.102 301.19 228.758 298.526 201.205C297.988 195.612 296.911 184.802 300.956 172.076C303.162 165.13 305.797 161.047 308.146 156.682C312.834 147.959 318.237 134.638 320.49 115.156C320.719 115.189 320.962 115.218 321.214 115.237C321.5 115.261 321.772 115.27 322.029 115.275C322.487 117.495 323.087 121.031 323.215 125.385C323.854 147.306 311.495 155.134 307.431 176.145C306.04 183.329 302.957 199.271 310.661 213.993C316.288 224.746 324.878 229.506 329.814 244.804C331.677 250.574 332.292 255.595 332.525 258.911L332.516 258.907Z" fill="#E6E7E8"/>
<path d="M307.393 106.685C308.294 108.057 309.885 110.091 312.424 111.883C315.645 114.151 318.804 114.899 320.557 115.18C320.81 117.91 321.033 122.188 320.519 127.353C318.408 148.616 306.831 154.424 300.952 172.071C292.995 195.974 302.843 219.515 304.92 224.474C311.767 240.835 315.845 240.406 321.596 251.65C330.981 269.998 314.101 303.043 291.999 320.524C267.673 339.772 239.525 338.181 231.735 337.475C243.25 320.028 242.841 309.251 240.616 302.767C235.585 288.121 219.071 288.998 210.753 270.484C204.716 257.048 209.838 248.62 202.277 242.636C194.516 236.495 187.603 243.522 176.044 238.601C164.114 233.522 163.833 223.483 152.37 212.64C146.067 206.679 135.48 199.652 117.123 196.765C129.477 175.644 143.113 167.187 151.56 163.405C158.626 160.241 168.012 157.64 171.256 156.801C184.296 153.418 190.914 153.857 204.292 147.801C209.552 145.419 213.535 143.142 216.861 140.898C231.611 130.945 241.954 122.641 244.646 120.358C253.599 112.783 270.822 105.184 307.388 106.685H307.393Z" fill="#4B5544"/>
<path d="M188.06 203.316C183.581 210.315 179.107 217.314 174.629 224.313C173.481 225.737 173.824 227.829 175.224 228.772C176.53 229.649 178.421 229.32 179.403 227.934C181.508 224.856 183.619 221.773 185.725 218.695C186.287 218.957 186.854 219.22 187.416 219.482C184.967 223.946 182.514 228.41 180.065 232.874C179.407 234.332 179.898 236.047 181.185 236.914C182.542 237.829 184.439 237.558 185.515 236.247C187.783 231.626 190.051 227.009 192.319 222.388C192.781 222.612 193.238 222.831 193.7 223.055C191.876 228.091 190.056 233.122 188.231 238.158C187.755 239.973 188.712 241.764 190.165 242.289C191.866 242.903 194.091 241.731 194.534 239.54C196.307 234.48 198.079 229.42 199.851 224.36C200.166 224.37 200.48 224.379 200.799 224.384C200.347 228.339 199.899 232.288 199.446 236.243C199.27 237.882 200.366 239.335 201.8 239.606C203.425 239.911 205.159 238.639 205.307 236.757C205.683 232.712 206.059 228.662 206.436 224.618C206.855 224.598 207.274 224.579 207.698 224.56C207.774 226.371 207.846 228.177 207.922 229.987C207.989 231.707 209.18 233.108 210.633 233.374C212.429 233.698 214.411 232.25 214.611 230.058C215.264 223.503 215.922 216.952 216.574 210.396C207.069 208.033 197.56 205.674 188.055 203.311L188.06 203.316Z" fill="#FECEAA"/>
<path d="M215.502 221.335C212.209 222.002 206.411 222.726 199.517 221.12C190.794 219.086 185.057 214.417 182.489 212.03C183.623 210.258 184.757 208.48 185.891 206.708C187.83 208.704 192.542 213.016 200.056 215.041C207.35 217.004 213.41 215.775 216.102 215.06C215.902 217.152 215.702 219.243 215.502 221.335Z" fill="#FEB781"/>
<path d="M295.444 149.95C292.08 151.594 287.054 154.057 280.97 157.082C262.832 166.096 253.689 170.656 250.239 173.157C243.56 177.998 233.95 187.798 228.504 209.142C226.904 210.357 215.274 218.867 200.657 215.198C191.257 212.84 185.682 206.713 183.705 204.302C191.109 179.179 202.972 165.015 211.553 157.082C218.509 150.65 225.898 145.795 267.244 126.409C283.423 118.824 297.088 112.626 307.064 108.157C303.191 122.088 299.317 136.014 295.444 149.945V149.95Z" fill="#4B5544"/>
<path d="M320.557 115.18C318.937 115.166 317.107 115.004 315.14 114.575C308.112 113.036 303.386 108.943 301.013 106.513C302.624 104.946 304.239 103.378 305.849 101.806C309.327 104.045 312.805 106.285 316.283 108.519C317.203 109.11 318.308 110.139 319.266 111.749C320.047 113.069 320.395 114.322 320.557 115.18Z" fill="#4B5544"/>
<path d="M468.735 142.558L428.029 138.1C422.259 137.468 417.069 141.633 416.437 147.403L413.788 171.585C413.157 177.356 417.322 182.545 423.092 183.177L463.798 187.635C469.568 188.267 474.758 184.102 475.39 178.332L478.039 154.15C478.671 148.379 474.505 143.19 468.735 142.558Z" fill="#949598"/>
<path d="M445.912 178.565C452.674 178.565 458.156 173.083 458.156 166.321C458.156 159.558 452.674 154.076 445.912 154.076C439.149 154.076 433.667 159.558 433.667 166.321C433.667 173.083 439.149 178.565 445.912 178.565Z" fill="#231F20"/>
<path d="M453.964 134.885C450.824 128.52 447.684 122.15 444.549 115.785C451.905 119.911 459.257 124.037 466.613 128.163C471.096 122.512 475.58 116.862 480.068 111.211C480.492 117.815 480.92 124.418 481.345 131.017C488.991 131.769 496.638 132.517 504.285 133.27C498.187 136.138 492.088 139.011 485.99 141.879C488.143 147.53 490.297 153.18 492.445 158.831L478.457 149.145C478.19 156.23 477.919 163.314 477.652 170.399C473.798 163.762 469.939 157.125 466.084 150.489C459.895 154.076 453.706 157.664 447.522 161.251C450.033 155.334 452.544 149.412 455.055 143.495C448.742 142.999 442.424 142.508 436.112 142.013C442.067 139.635 448.022 137.258 453.978 134.885H453.964Z" fill="white"/>
<path d="M429.546 157.221L427.802 173.101" stroke="white" stroke-width="4" stroke-linecap="round" stroke-linejoin="round"/>
<path d="M464.398 159.722L463.964 170.013" stroke="white" stroke-width="4" stroke-linecap="round" stroke-linejoin="round"/>
<path d="M470.453 173.1H462.23C461.304 173.1 460.553 173.851 460.553 174.777V179.156C460.553 180.082 461.304 180.833 462.23 180.833H470.453C471.379 180.833 472.13 180.082 472.13 179.156V174.777C472.13 173.851 471.379 173.1 470.453 173.1Z" fill="#58595B"/>
<path d="M427.421 148.34C428.51 148.34 429.393 147.457 429.393 146.367C429.393 145.278 428.51 144.395 427.421 144.395C426.331 144.395 425.448 145.278 425.448 146.367C425.448 147.457 426.331 148.34 427.421 148.34Z" fill="#DC6569"/>
<path d="M436.097 149.045C437.186 149.045 438.069 148.162 438.069 147.072C438.069 145.983 437.186 145.1 436.097 145.1C435.007 145.1 434.124 145.983 434.124 147.072C434.124 148.162 435.007 149.045 436.097 149.045Z" fill="#006838"/>
<path d="M449.595 174.777C450.208 174.777 450.705 174.28 450.705 173.667C450.705 173.054 450.208 172.557 449.595 172.557C448.982 172.557 448.485 173.054 448.485 173.667C448.485 174.28 448.982 174.777 449.595 174.777Z" fill="white"/>
<path d="M439.489 161.366C437.765 164.124 437.707 167.55 439.351 170.127C441.209 173.038 444.411 173.586 444.935 173.667" stroke="white" stroke-width="4" stroke-linecap="round" stroke-linejoin="round"/>
<path d="M396.291 115.756C395.576 116.433 393.447 115.637 393.351 114.656C393.27 113.836 394.59 112.631 395.638 113.021C396.687 113.412 396.891 115.189 396.291 115.756Z" fill="white"/>
<path d="M403.881 115.818C403.052 116.347 401.113 115.165 401.198 114.184C401.275 113.365 402.795 112.426 403.752 113.007C404.71 113.588 404.576 115.37 403.881 115.813V115.818Z" fill="white"/>
<path d="M411.094 118.691C410.284 119.249 408.302 118.134 408.36 117.152C408.407 116.328 409.894 115.342 410.87 115.89C411.847 116.438 411.776 118.224 411.094 118.691Z" fill="white"/>
<path d="M228.971 240.077C229.562 239.291 231.792 239.706 232.059 240.654C232.278 241.45 231.187 242.865 230.086 242.655C228.986 242.445 228.481 240.735 228.971 240.073V240.077Z" fill="white"/>
<path d="M210.171 237.1C211.024 236.614 212.906 237.89 212.768 238.862C212.653 239.677 211.086 240.539 210.162 239.911C209.237 239.282 209.457 237.509 210.171 237.1Z" fill="white"/>
<path d="M204.359 229.077C205.269 228.696 206.974 230.192 206.722 231.144C206.507 231.94 204.849 232.602 204.006 231.864C203.163 231.125 203.601 229.391 204.359 229.077Z" fill="white"/>
<path d="M238.242 233.484C238.833 232.698 241.063 233.112 241.33 234.06C241.549 234.856 240.458 236.271 239.357 236.061C238.257 235.852 237.752 234.141 238.242 233.479V233.484Z" fill="white"/>
<path d="M217.817 242.374C218.518 241.683 220.662 242.436 220.781 243.413C220.881 244.232 219.585 245.466 218.527 245.095C217.47 244.723 217.227 242.955 217.817 242.374Z" fill="white"/>
<path d="M414.615 127.014C413.719 127.419 411.966 125.976 412.189 125.018C412.38 124.218 414.019 123.503 414.881 124.218C415.744 124.932 415.363 126.676 414.61 127.014H414.615Z" fill="white"/>
<path d="M415.106 136.533C414.291 137.01 412.976 135.924 413.286 135.037C413.548 134.294 415.029 133.451 415.677 133.984C416.325 134.518 415.787 136.138 415.106 136.533Z" fill="white"/>
<path d="M447.879 412.981C449.413 412.981 449.413 410.599 447.879 410.599C446.345 410.599 446.345 412.981 447.879 412.981Z" fill="white"/>
<path d="M323.797 154.038C316.178 155.253 292.156 160.094 273.761 181.3C263.422 193.216 258.92 205.631 256.857 213.235" stroke="white" stroke-width="4" stroke-linecap="round" stroke-linejoin="round"/>
<path d="M212.058 208.39C214.097 210.877 219.452 216.704 228.404 219.129C243.212 223.14 255.256 214.431 256.857 213.235" stroke="white" stroke-width="4" stroke-linecap="round" stroke-linejoin="round"/>
<path d="M369.125 162.866C368.449 163.591 367.71 164.334 366.905 165.087C366.357 165.601 365.814 166.082 365.281 166.53C357.781 156.025 350.282 145.519 342.778 135.019C343.979 134.109 345.175 133.199 346.376 132.289C349.968 136.076 353.737 140.431 357.51 145.376C362.198 151.522 366.019 157.454 369.125 162.866Z" fill="#3C4436"/>
<path d="M336.446 86.7032C327.113 86.889 317.779 87.0748 308.446 87.2654C307.636 88.6708 306.831 90.0716 306.021 91.4771C306.111 90.71 306.254 89.8572 306.483 88.9472C306.831 87.556 307.283 86.3601 307.731 85.3834C317.284 85.1166 326.836 84.8451 336.389 84.5782C336.408 85.2881 336.427 85.998 336.446 86.7079V86.7032Z" fill="#FEB781"/>
<path d="M328.561 90.5861C328.108 94.2833 328.384 98.0662 329.375 101.654C329.414 101.792 329.452 101.944 329.399 102.083C329.314 102.302 329.037 102.368 328.799 102.397C327.517 102.554 326.221 102.597 324.935 102.526" stroke="#231F20" stroke-width="2" stroke-miterlimit="10" stroke-linecap="round"/>
<path d="M319.346 103.054C319.37 103.388 319.489 104.36 320.251 105.208C321.352 106.427 322.891 106.399 323.119 106.389" stroke="#231F20" stroke-width="2" stroke-miterlimit="10" stroke-linecap="round"/>
<path d="M322.711 95.5477C323.601 95.5477 324.322 94.8267 324.322 93.9373C324.322 93.048 323.601 92.327 322.711 92.327C321.822 92.327 321.101 93.048 321.101 93.9373C321.101 94.8267 321.822 95.5477 322.711 95.5477Z" fill="black"/>
<path d="M332.374 95.5477C333.263 95.5477 333.984 94.8267 333.984 93.9373C333.984 93.048 333.263 92.327 332.374 92.327C331.484 92.327 330.763 93.048 330.763 93.9373C330.763 94.8267 331.484 95.5477 332.374 95.5477Z" fill="black"/>
<path d="M334.799 90.0919C335.12 89.5358 334.482 88.5667 333.375 87.9273C332.267 87.2879 331.109 87.2204 330.788 87.7764C330.467 88.3324 331.105 89.3015 332.212 89.9409C333.32 90.5803 334.478 90.6479 334.799 90.0919Z" fill="#050505"/>
<path d="M322.475 90.1448C323.582 89.5054 324.22 88.5363 323.899 87.9803C323.578 87.4243 322.42 87.4919 321.312 88.1313C320.205 88.7707 319.567 89.7397 319.888 90.2958C320.209 90.8518 321.367 90.7842 322.475 90.1448Z" fill="#050505"/>
<path d="M298.716 96.4365C300.341 96.5413 301.966 96.589 303.59 96.5842" stroke="#050505" stroke-width="3" stroke-miterlimit="10" stroke-linecap="round"/>
<path d="M313.643 101.835C315.659 101.835 317.293 100.201 317.293 98.185C317.293 96.1695 315.659 94.5355 313.643 94.5355C311.628 94.5355 309.994 96.1695 309.994 98.185C309.994 100.201 311.628 101.835 313.643 101.835Z" fill="#FF8D9E"/>
<path d="M334.736 102.859C333.135 102.192 332.125 100.634 332.216 99.0287C332.325 97.1086 333.988 95.4554 336.113 95.3553C335.998 96.5131 335.832 97.7566 335.594 99.0763C335.346 100.444 335.05 101.706 334.736 102.864V102.859Z" fill="#FF8D9E"/>
<path d="M103.703 303C101.872 308.003 100.038 313.009 98.2066 318.012C94.8056 319.173 91.4011 320.333 88.0001 321.494C91.0236 323.577 94.0506 325.66 97.0741 327.746C98.9404 334.832 100.803 341.914 102.669 349C104.204 342.085 105.739 335.174 107.27 328.26C110.512 326.545 113.758 324.834 117 323.119C113.878 321.743 110.752 320.363 107.63 318.987C106.321 313.657 105.012 308.33 103.707 303H103.703Z" fill="#334B59"/>
<path d="M7.5809 167C6.69696 169.393 5.81131 171.787 4.92737 174.18C3.28552 174.735 1.64197 175.29 0.00012207 175.845C1.45973 176.841 2.92105 177.837 4.38066 178.835C5.28164 182.224 6.1809 185.611 7.08188 189C7.82275 185.693 8.56362 182.388 9.3028 179.081C10.868 178.261 12.4349 177.442 14.0001 176.622C12.4928 175.964 10.9838 175.304 9.47652 174.646C8.84465 172.097 8.21278 169.549 7.58261 167H7.5809Z" fill="#334B59"/>
<path d="M548.725 0C546.462 6.4843 544.194 12.9734 541.931 19.4577C537.386 21.0919 532.84 22.726 528.3 24.365C532.469 26.8996 536.638 29.4343 540.807 31.9689C543.617 40.9593 546.433 49.9449 549.244 58.9352C551.026 50.0163 552.808 41.0974 554.595 32.1833C558.902 29.8488 563.209 27.5142 567.516 25.1749C563.242 23.5503 558.968 21.9209 554.695 20.2962C552.708 13.5308 550.721 6.7654 548.734 0H548.725Z" fill="#334B59"/>
</svg>
