<svg width="594" height="640" viewBox="0 0 594 640" fill="none" xmlns="http://www.w3.org/2000/svg">
<path d="M29.1232 414.359C-36.2512 400.078 -101.626 385.817 -167 371.536C-95.572 342.445 -24.163 313.334 47.265 284.242C22.1399 216.007 -2.98505 147.792 -28.1101 79.5567C40.9648 121.431 110.04 163.305 179.114 205.179C225.531 136.792 271.967 68.4055 318.384 0L312.861 193.496C378.35 184.962 443.819 176.428 509.307 167.894C469.02 219.838 428.733 271.801 388.426 323.746C456.951 354.165 525.475 384.584 594 415.003L319.409 432.508C314.399 501.672 309.389 570.836 304.379 640C272.536 570.836 240.694 501.672 208.851 432.508C131.369 478.061 53.8689 523.614 -23.6126 569.167C-6.0403 517.564 11.5509 465.942 29.1232 414.34V414.359Z" fill="white"/>
</svg>
