<svg width="633" height="574" viewBox="0 0 633 574" fill="none" xmlns="http://www.w3.org/2000/svg">
<path d="M142.311 395.511C143.469 396.623 144.776 397.587 146.187 398.352C146.757 398.659 147.564 398.51 147.881 397.908C148.198 397.305 148.044 396.549 147.435 396.218C146.643 395.788 145.885 395.299 145.172 394.746L145.425 394.938C144.95 394.568 144.494 394.177 144.063 393.762C143.598 393.313 142.771 393.263 142.311 393.762C141.85 394.261 141.81 395.032 142.311 395.511Z" fill="#4D6877"/>
<path d="M138.424 397.597C140.325 399.667 143.093 400.867 145.9 400.887C146.549 400.887 147.168 400.314 147.138 399.652C147.108 398.99 146.593 398.422 145.9 398.417C145.603 398.417 145.306 398.402 145.014 398.372C144.984 398.372 144.761 398.343 144.92 398.362C145.078 398.382 144.855 398.352 144.826 398.348C144.672 398.323 144.519 398.293 144.365 398.259C144.073 398.194 143.791 398.115 143.509 398.026C143.375 397.982 143.246 397.937 143.113 397.888C143.048 397.863 142.984 397.839 142.919 397.814C142.741 397.745 143.182 397.937 142.88 397.794C142.355 397.552 141.855 397.27 141.38 396.939C141.31 396.89 141.241 396.836 141.167 396.786C141.261 396.85 141.261 396.86 141.167 396.786C141.058 396.697 140.954 396.608 140.845 396.515C140.612 396.307 140.389 396.085 140.176 395.852C139.736 395.373 138.864 395.378 138.424 395.852C137.953 396.361 137.958 397.088 138.424 397.601V397.597Z" fill="#4D6877"/>
<path opacity="0.63" d="M632.028 501.632C635.449 511.123 595.23 538.564 554.659 551.884C484.945 574.774 454.173 542.843 364.718 535.852C235.89 525.787 193.329 583.707 65.9467 553.435C59.4952 551.904 -1.10369 537.25 0.0153036 525.239C1.28779 511.617 81.261 508.994 92.7431 508.658C184.352 506.01 204.751 525.17 283.799 530.95C358.419 536.41 428.213 525.773 542.132 508.406C592.824 500.679 629.013 493.273 632.028 501.627V501.632Z" fill="#425056"/>
<g opacity="0.63">
<path d="M223.096 432.349C227.874 432.349 227.884 424.938 223.096 424.938C218.308 424.938 218.308 432.349 223.096 432.349Z" fill="#425056"/>
</g>
<g opacity="0.63">
<path d="M204.117 507.275C208.895 507.275 208.905 499.864 204.117 499.864C199.329 499.864 199.329 507.275 204.117 507.275Z" fill="#425056"/>
</g>
<g opacity="0.63">
<path d="M49.1915 491.652C53.9695 491.652 53.9794 484.241 49.1915 484.241C44.4036 484.241 44.4036 491.652 49.1915 491.652Z" fill="#425056"/>
</g>
<g opacity="0.63">
<path d="M61.0699 437.794C65.8479 437.794 65.8578 430.383 61.0699 430.383C56.282 430.383 56.282 437.794 61.0699 437.794Z" fill="#425056"/>
</g>
<g opacity="0.63">
<path d="M9.36339 457.576C14.1414 457.576 14.1513 450.165 9.36339 450.165C4.57549 450.165 4.57549 457.576 9.36339 457.576Z" fill="#425056"/>
</g>
<g opacity="0.63">
<path d="M10.2892 554.809C15.0672 554.809 15.0771 547.398 10.2892 547.398C5.50127 547.398 5.50127 554.809 10.2892 554.809Z" fill="#425056"/>
</g>
<g opacity="0.63">
<path d="M266.558 570.921C271.336 570.921 271.346 563.51 266.558 563.51C261.77 563.51 261.77 570.921 266.558 570.921Z" fill="#425056"/>
</g>
<g opacity="0.63">
<path d="M557.55 482.408C562.328 482.408 562.338 474.997 557.55 474.997C552.762 474.997 552.762 482.408 557.55 482.408Z" fill="#425056"/>
</g>
<g opacity="0.63">
<path d="M589.016 573.865C593.794 573.865 593.804 566.454 589.016 566.454C584.228 566.454 584.228 573.865 589.016 573.865Z" fill="#425056"/>
</g>
<path d="M223.885 268.482C198.163 257.345 157.642 235.789 117.239 194.105C153.171 195.631 189.102 197.158 225.034 198.68C222.548 155.577 220.063 112.475 217.582 69.3723C240.71 89.0165 263.832 108.661 286.96 128.305C291.931 102.939 296.897 77.5738 301.868 52.2084C319.643 74.9059 337.418 97.5984 355.193 120.296C369.909 97.7911 384.629 75.2863 399.344 52.7815C402.973 75.8594 406.608 98.9324 410.237 122.01C433.171 106.754 456.106 91.4967 479.04 76.2399C475.53 101.877 472.014 127.514 468.504 153.147C493.993 148.487 519.487 143.833 544.976 139.174C528.924 167.02 512.867 194.866 496.815 222.706C517.457 223.087 538.099 223.467 558.741 223.853C543.575 235.429 520.888 250.74 491.082 263.902C471.638 272.489 351.673 323.817 223.89 268.477L223.885 268.482Z" fill="white"/>
<path d="M330.128 130.133C329.786 118.339 337.5 107.771 348.735 104.416C360.628 100.864 373.759 106.21 379.764 117.257C387.959 108.028 401.397 106.096 410.794 112.025C418.36 116.798 422.341 126.047 420.845 135.429C428.455 136.679 434.823 141.714 437.462 148.65C440.452 156.521 438.16 165.582 431.649 171.452C438.744 174.979 441.908 183.462 438.903 190.676C435.957 197.751 427.945 201.516 420.519 199.238C424.95 206.481 423.034 215.779 416.627 220.364C410.972 224.411 402.877 224.03 397.233 219.218C395.945 221.204 393.46 224.381 389.306 226.338C387.652 227.118 383.938 228.551 374.922 227.291C370.07 226.609 362.752 225.018 354.33 220.853C353.112 217.667 349.636 209.925 341.57 205.7C330.43 199.865 318.433 205.038 313.828 206.684C297.761 212.43 296.949 225.028 285.705 229.035C277.401 231.995 263.696 230.177 240.024 208.798C234.068 208.897 228.834 204.831 227.582 199.164C226.309 193.403 229.483 187.484 235.093 185.231C231.191 180.063 230.503 173.26 233.345 167.682C237.093 160.315 245.06 158.878 245.891 158.744C242.218 152.741 243.064 145.063 247.887 140.098C252.452 135.395 259.686 134.036 265.825 136.768C263.394 128.893 267.137 120.405 274.554 116.793C282.155 113.092 291.552 115.518 296.375 122.499C300.747 113.71 310.956 109.827 319.161 112.989C325.83 115.558 330.316 122.455 330.133 130.143L330.128 130.133Z" fill="#050505"/>
<path d="M304.649 177.143C305.154 177.692 305.812 178.181 306.604 178.136C307.095 178.107 307.55 177.924 307.907 177.578C308.263 177.232 308.387 176.748 308.402 176.254L308.357 176.58C308.357 176.545 308.367 176.511 308.387 176.476L308.263 176.773L308.288 176.738L308.095 176.99L308.129 176.96L307.877 177.153L307.917 177.133L307.619 177.257C307.649 177.247 307.679 177.237 307.709 177.237L307.382 177.282C307.431 177.282 307.476 177.282 307.53 177.287L307.204 177.242C307.476 177.296 307.733 177.415 308.006 177.459C308.417 177.534 308.828 177.553 309.224 177.4C309.783 177.188 310.224 176.807 310.417 176.234C310.57 175.765 310.501 175.246 310.258 174.821C309.927 174.238 309.293 173.858 308.714 173.546C308.184 173.265 307.515 173.141 306.976 173.472C306.822 173.566 306.679 173.67 306.56 173.808C306.491 173.887 306.436 173.966 306.357 174.031L306.609 173.838C306.609 173.838 306.565 173.868 306.54 173.873L306.837 173.749L306.798 173.759L307.124 173.714C307.095 173.719 307.06 173.714 307.03 173.714L307.357 173.759L307.307 173.739L307.605 173.863C307.496 173.808 307.407 173.729 307.298 173.675C307.01 173.532 306.783 173.472 306.461 173.453C306.075 173.423 305.703 173.537 305.357 173.695C304.644 174.031 304.193 174.762 304.173 175.538C304.154 176.185 304.758 176.802 305.411 176.773C306.065 176.743 306.629 176.229 306.649 175.538C306.649 175.508 306.649 175.478 306.654 175.449L306.609 175.775C306.619 175.701 306.639 175.631 306.669 175.562L306.545 175.859C306.58 175.79 306.614 175.73 306.659 175.671L306.466 175.923C306.515 175.864 306.565 175.814 306.624 175.77L306.372 175.962C306.446 175.908 306.52 175.864 306.604 175.824L306.307 175.948C306.392 175.913 306.476 175.888 306.565 175.874L306.238 175.918C306.312 175.908 306.382 175.908 306.456 175.918L306.129 175.874C306.203 175.883 306.273 175.903 306.342 175.928L306.045 175.804C306.154 175.854 306.248 175.933 306.352 175.992C306.698 176.18 307.109 176.239 307.491 176.125C307.758 176.046 308.011 175.888 308.199 175.686C308.268 175.607 308.327 175.523 308.407 175.454L308.154 175.646C308.154 175.646 308.199 175.612 308.223 175.602L307.926 175.725C307.961 175.706 308.001 175.696 308.04 175.696L307.713 175.74C307.753 175.74 307.793 175.74 307.832 175.745L307.506 175.701C307.57 175.715 307.619 175.735 307.679 175.76L307.382 175.636C307.684 175.785 307.991 175.967 308.258 176.17L308.006 175.977C308.095 176.046 308.169 176.121 308.243 176.209L308.05 175.957C308.09 176.012 308.124 176.071 308.154 176.135L308.03 175.839C308.05 175.888 308.06 175.933 308.07 175.982L308.025 175.656C308.025 175.691 308.025 175.725 308.025 175.755L308.07 175.429C308.06 175.483 308.05 175.528 308.03 175.577L308.154 175.281C308.129 175.325 308.105 175.365 308.075 175.409L308.268 175.157C308.233 175.197 308.199 175.226 308.154 175.261L308.407 175.068C308.362 175.098 308.318 175.123 308.273 175.147L308.57 175.024C308.486 175.058 308.402 175.078 308.313 175.093L308.639 175.048C308.56 175.053 308.481 175.048 308.402 175.048L308.728 175.093C308.278 175.029 307.872 174.806 307.407 174.811C306.901 174.821 306.431 175.068 306.154 175.498C305.956 175.809 305.966 176.125 305.921 176.476L305.966 176.15C305.961 176.18 305.951 176.209 305.941 176.239L306.065 175.943C306.045 175.987 306.025 176.022 305.995 176.056L306.188 175.804C306.159 175.839 306.124 175.869 306.089 175.898L306.342 175.706C306.302 175.735 306.263 175.755 306.218 175.78L306.515 175.656C306.436 175.686 306.362 175.71 306.283 175.72L306.609 175.676C306.545 175.676 306.481 175.676 306.416 175.671L306.743 175.715C306.669 175.701 306.599 175.676 306.53 175.646L306.827 175.77C306.738 175.725 306.659 175.676 306.58 175.622L306.832 175.814C306.674 175.691 306.54 175.552 306.406 175.404C305.966 174.93 305.094 174.925 304.654 175.404C304.183 175.913 304.183 176.644 304.654 177.153L304.649 177.143Z" fill="#050505"/>
<path d="M304.955 176.605C305.183 176.951 305.446 177.212 305.787 177.44C305.951 177.543 306.134 177.613 306.307 177.687C306.416 177.731 306.525 177.766 306.639 177.786C307.382 177.924 308.099 177.815 308.763 177.45C309.382 177.109 309.961 176.521 310.149 175.819C310.273 175.355 310.224 174.821 309.961 174.406C309.699 173.991 309.298 173.724 308.832 173.571C308.629 173.502 308.402 173.487 308.194 173.462C308.045 173.448 307.892 173.443 307.738 173.448C307.347 173.467 306.946 173.532 306.574 173.665C306.267 173.779 306.005 173.942 305.837 174.233C305.683 174.5 305.614 174.89 305.713 175.187C305.812 175.483 305.995 175.775 306.282 175.923C306.57 176.071 306.926 176.16 307.238 176.046C307.441 175.972 307.644 175.918 307.862 175.888L307.535 175.933C307.768 175.903 307.996 175.903 308.228 175.933L307.901 175.888C308.025 175.903 308.144 175.933 308.263 175.977L307.966 175.854C308.03 175.883 308.085 175.913 308.144 175.953L307.892 175.76C307.931 175.794 307.971 175.829 308.005 175.869L307.812 175.617C307.837 175.651 307.857 175.681 307.877 175.715L307.753 175.419C307.778 175.473 307.788 175.523 307.797 175.582L307.753 175.256C307.753 175.3 307.753 175.34 307.753 175.379L307.797 175.053C307.788 175.127 307.768 175.192 307.743 175.261L307.867 174.964C307.822 175.063 307.773 175.147 307.708 175.236L307.901 174.984C307.802 175.103 307.693 175.211 307.575 175.305L307.827 175.113C307.679 175.226 307.515 175.325 307.342 175.399L307.639 175.276C307.481 175.34 307.317 175.389 307.144 175.409L307.471 175.365C307.337 175.379 307.203 175.379 307.075 175.365L307.401 175.409C307.258 175.389 307.119 175.35 306.985 175.295L307.283 175.419C307.179 175.37 307.08 175.315 306.985 175.246L307.238 175.439C307.149 175.37 307.065 175.291 306.995 175.202L307.188 175.454C307.164 175.419 307.139 175.384 307.114 175.35C306.936 175.083 306.688 174.871 306.376 174.782C306.079 174.703 305.683 174.737 305.421 174.905C305.158 175.073 304.926 175.33 304.851 175.641C304.777 175.953 304.792 176.313 304.975 176.595L304.955 176.605Z" fill="#050505"/>
<path d="M332.792 185.162C333.391 185.167 333.985 185.068 334.569 184.94C334.847 184.88 335.124 184.811 335.406 184.757C335.525 184.732 335.644 184.712 335.768 184.693C335.847 184.678 335.926 184.668 336.01 184.653C336.144 184.633 336.169 184.628 336.089 184.643C336.005 184.653 336.03 184.653 336.169 184.633C336.248 184.623 336.332 184.614 336.411 184.609C336.53 184.599 336.654 184.589 336.778 184.579C337.04 184.559 337.302 184.554 337.57 184.549C338.119 184.549 338.664 184.579 339.209 184.638C339.852 184.712 340.476 184.021 340.447 183.403C340.412 182.672 339.902 182.247 339.209 182.168C338.139 182.049 337.06 182.054 335.99 182.183C335.396 182.257 334.807 182.356 334.223 182.484C333.965 182.543 333.703 182.593 333.445 182.647C333.163 182.706 333.559 182.652 333.292 182.667C333.129 182.677 332.97 182.687 332.807 182.682C332.158 182.672 331.539 183.255 331.569 183.917C331.599 184.579 332.114 185.142 332.807 185.152L332.792 185.162Z" fill="#050505"/>
<path d="M18.5678 533.07C18.0974 531.118 20.6968 528.337 64.8723 506.4C80.9986 498.391 96.8378 490.723 118.237 482.769C136.433 476.005 152.193 471.435 167.493 477.853C169.79 478.816 171.597 479.829 172.815 480.56C172.266 497.383 171.716 514.211 171.167 531.034C164.225 531.538 157.283 532.037 150.337 532.541C150.356 525.234 150.371 517.927 150.391 510.62C145.955 510.867 141.518 511.119 137.082 511.366C136.636 518.698 136.186 526.03 135.74 533.361C125.189 533.791 109.736 534.389 91.0398 535.017C29.5597 537.067 19.3947 536.489 18.5678 533.075V533.07Z" fill="#050505"/>
<path d="M527.655 537.714C519.163 539.557 502.329 493.189 497.853 480.857C497.264 479.236 495.367 470.975 490.53 454.745C486.277 440.482 482.355 429.019 488.431 420.408C489.525 418.856 490.639 417.641 491.446 416.831C507.34 418.318 523.228 419.8 539.122 421.287C538.666 425.862 538.216 430.442 537.76 435.017C531.918 434.543 526.075 434.069 520.233 433.589C520.233 436.672 520.223 439.76 520.218 442.843C524.734 443.219 529.249 443.594 533.76 443.97C533.839 451.425 533.884 462.497 533.671 475.921C533.027 516.4 532.616 536.637 527.65 537.714H527.655Z" fill="#050505"/>
<path d="M87.3013 475.921C85.2465 429.34 88.0737 392.186 91.3168 366.07C94.3915 341.277 99.2388 315.191 119.123 302.562C119.123 302.562 122.782 300.24 127.149 298.555C166.002 283.6 299.192 305.191 298.875 336.89C298.736 350.971 272.242 367.671 186.49 386.094C193.373 418.896 200.25 451.702 207.132 484.503C193.274 489.35 166.571 496.519 133.739 491.37C113.786 488.238 98.0258 481.573 87.2963 475.921H87.3013Z" fill="#939598"/>
<path d="M389.89 484.503C375.378 493.52 342.293 473.955 325.097 449.602C297.004 409.815 312.932 359.548 315.922 350.62C332.782 349.879 346.719 349.301 356.632 348.906C384.369 347.789 387.365 347.779 391.078 350.24C399.401 355.749 401.342 367.033 399.065 425.002C397.064 475.896 394.945 481.366 389.89 484.508V484.503Z" fill="#939598"/>
<path d="M239.578 301.792C226.557 300.112 213.371 299.736 200.275 300.675C193.705 301.149 187.154 301.945 180.658 303.066C174.558 304.119 168.399 305.319 162.517 307.276C153.114 310.403 144.831 315.818 138.864 323.793C132.898 331.767 130.289 341.52 128.823 351.248C127.699 358.723 127.09 366.268 126.684 373.812C126.219 382.429 126.04 391.06 126.006 399.686C125.971 408.313 126.095 417.31 126.328 426.119C126.541 434.148 126.843 442.176 127.219 450.2C127.511 456.475 127.853 462.749 128.239 469.024C128.457 472.586 128.689 476.143 128.947 479.701C128.972 480.037 128.996 480.378 129.021 480.714C129.14 482.29 131.616 482.299 131.497 480.714C131.294 478.021 131.116 475.328 130.942 472.636C130.581 467.028 130.259 461.415 129.972 455.803C129.586 448.253 129.264 440.704 129.016 433.15C128.734 424.538 128.546 415.921 128.491 407.31C128.437 398.698 128.516 389.899 128.833 381.198C129.115 373.338 129.576 365.472 130.462 357.656C131.403 349.361 132.73 340.848 136.205 333.195C140.315 324.143 147.415 316.836 156.332 312.439C161.274 310.003 166.587 308.501 171.949 307.305C178.272 305.892 184.669 304.796 191.105 304.03C204.028 302.493 217.105 302.236 230.077 303.279C233.251 303.531 236.415 303.867 239.574 304.272C240.242 304.356 240.806 303.644 240.811 303.037C240.821 302.301 240.232 301.886 239.574 301.802L239.578 301.792Z" fill="#6D6E71"/>
<path d="M244.882 323.432C229.047 321.821 212.941 320.215 197.136 323.017C184.684 325.225 172.063 330.517 163.324 339.894C158.724 344.835 155.545 350.823 153.684 357.285C151.822 363.748 151.129 371.075 150.886 378.051C150.332 394.128 151.03 410.259 152.253 426.292C153.476 442.324 155.323 458.718 157.224 474.893C157.452 476.85 157.684 478.806 157.917 480.763C157.996 481.425 158.432 481.998 159.155 481.998C159.764 481.998 160.472 481.43 160.393 480.763C158.506 464.795 156.625 448.821 155.253 432.799C153.897 416.91 153.045 400.961 153.213 385.013C153.357 371.401 153.852 356.668 162.141 345.191C169.434 335.087 181.426 329.188 193.294 326.332C208.257 322.735 223.913 323.837 239.074 325.314C241.01 325.502 242.941 325.7 244.877 325.897C245.545 325.966 246.114 325.28 246.114 324.662C246.114 323.936 245.545 323.496 244.877 323.427L244.882 323.432Z" fill="#6D6E71"/>
<path d="M244.465 355.364C238.039 354.944 231.602 354.667 225.16 354.533C217.555 354.375 209.93 354.346 202.33 354.692C197.889 354.894 193.343 355.151 189.001 356.189C186.634 356.752 184.382 357.646 182.465 359.163C178.46 362.34 176.42 367.364 175.682 372.29C174.816 378.061 175.41 383.851 175.974 389.617C176.771 397.72 177.623 405.818 178.534 413.906C179.381 421.43 180.272 428.95 181.203 436.47C182.035 443.159 182.896 449.849 183.792 456.529C184.555 462.226 185.342 467.922 186.149 473.614C186.318 474.8 186.486 475.99 186.659 477.176C186.753 477.838 187.595 478.199 188.184 478.041C188.897 477.848 189.145 477.186 189.051 476.519C188.293 471.247 187.555 465.975 186.837 460.704C185.981 454.404 185.154 448.1 184.352 441.791C183.436 434.577 182.559 427.359 181.728 420.136C180.817 412.27 179.955 404.395 179.153 396.514C178.772 392.814 178.386 389.108 178.059 385.403C177.826 382.769 177.663 380.126 177.727 377.483C177.851 372.033 178.945 366.154 182.901 362.112C183.322 361.683 183.768 361.297 184.228 360.912C184.347 360.813 183.985 361.09 184.268 360.882C184.362 360.813 184.451 360.749 184.55 360.68C184.743 360.546 184.941 360.413 185.144 360.289C185.57 360.032 186.01 359.8 186.461 359.598C186.53 359.568 186.6 359.538 186.664 359.509C186.882 359.41 186.535 359.558 186.61 359.529C186.748 359.474 186.882 359.42 187.021 359.365C187.303 359.257 187.585 359.158 187.872 359.069C189.333 358.595 190.843 358.283 192.358 358.041C192.576 358.007 192.794 357.972 193.012 357.943C193.126 357.928 193.239 357.908 193.348 357.893C193.408 357.883 193.462 357.878 193.522 357.868C193.393 357.888 193.442 357.878 193.541 357.868C194.056 357.799 194.571 357.74 195.086 357.686C196.284 357.557 197.488 357.453 198.691 357.369C205.727 356.875 212.807 356.861 219.858 356.925C226.908 356.989 233.583 357.206 240.435 357.592C241.782 357.666 243.134 357.75 244.48 357.839C245.149 357.883 245.718 357.241 245.718 356.604C245.718 355.897 245.149 355.413 244.48 355.368L244.465 355.364Z" fill="#6D6E71"/>
<path d="M207.48 294.924C203.236 294.741 198.983 294.702 194.74 294.707C186.288 294.722 177.826 295.003 169.404 295.72C160.982 296.436 151.624 297.572 143.123 300.147C138.419 301.569 133.948 303.645 129.774 306.228C127.927 307.37 126.085 308.58 124.441 310.008C121.689 312.399 119.208 315.127 116.965 317.997C114.395 321.288 111.939 324.84 110.335 328.714C108.637 332.814 107.736 337.266 106.924 341.609C105.641 348.496 104.785 355.462 104.077 362.429C103.146 371.604 102.522 380.813 102.071 390.022C101.517 401.253 101.23 412.493 101.126 423.738C101.007 436.737 101.136 449.736 101.477 462.734C101.566 466.153 101.67 469.572 101.789 472.991C101.844 474.577 104.319 474.582 104.265 472.991C103.809 459.716 103.562 446.43 103.562 433.145C103.562 421.519 103.75 409.899 104.191 398.283C104.557 388.624 105.097 378.965 105.914 369.331C106.547 361.88 107.33 354.43 108.498 347.039C109.29 342.009 110.197 336.94 111.746 332.083C112.014 331.243 112.306 330.413 112.633 329.593C112.667 329.509 112.702 329.42 112.737 329.336C112.746 329.316 112.643 329.544 112.746 329.311C112.826 329.133 112.905 328.951 112.989 328.778C113.286 328.145 113.623 327.533 113.964 326.92C116.465 322.434 119.594 318.304 123.179 314.623C124.125 313.649 125.105 312.706 126.125 311.811C126.323 311.639 126.521 311.475 126.719 311.307C126.739 311.293 126.759 311.278 126.773 311.263C127.011 311.065 126.566 311.416 126.917 311.149C130.65 308.373 134.73 305.986 139.033 304.203C146.648 301.056 155.055 299.746 163.195 298.808C171.934 297.805 180.733 297.37 189.526 297.227C195.077 297.138 200.637 297.162 206.187 297.35C206.613 297.365 207.039 297.38 207.465 297.399C209.059 297.469 209.054 294.998 207.465 294.929L207.48 294.924Z" fill="#6D6E71"/>
<path d="M340.798 362.256C340.293 372.083 340.179 381.929 340.461 391.766C340.743 401.564 341.422 411.346 342.486 421.089C343.095 426.633 343.828 432.166 344.68 437.675C344.784 438.337 345.61 438.698 346.205 438.54C346.913 438.347 347.17 437.68 347.071 437.018C345.581 427.403 344.482 417.73 343.774 408.021C343.065 398.313 342.734 388.525 342.798 378.767C342.833 373.259 342.996 367.755 343.278 362.256C343.363 360.665 340.882 360.67 340.803 362.256H340.798Z" fill="#6D6E71"/>
<path d="M361.42 357.74C360.984 368.461 360.558 379.192 360.712 389.929C360.86 400.625 361.593 411.337 363.45 421.885C364.485 427.764 365.886 433.58 367.718 439.266C368.203 440.773 370.594 440.131 370.104 438.609C366.876 428.575 365.009 418.16 364.064 407.676C363.108 397.078 363.034 386.421 363.276 375.788C363.415 369.771 363.653 363.758 363.9 357.74C363.965 356.149 361.489 356.154 361.425 357.74H361.42Z" fill="#6D6E71"/>
<path d="M380.557 357.74V418.594C380.557 420.185 383.032 420.185 383.032 418.594V357.74C383.032 356.149 380.557 356.149 380.557 357.74Z" fill="#6D6E71"/>
<path d="M557.66 111.447C556.006 117.336 554.352 123.226 552.698 129.115C559.432 131.126 566.166 133.132 572.9 135.143C565.2 139.752 554.05 147.425 543.212 159.317C524.001 180.399 517.95 201.397 513.756 211.076C504.453 232.533 478.211 258.497 401.283 274.717C394.193 260.043 387.102 245.374 380.012 230.7C420.984 230.503 443.815 218.037 457.198 206.259C482.128 184.317 482.771 157.297 514.41 132.746C530.254 120.449 546.46 114.53 557.665 111.447H557.66Z" fill="#D46370"/>
<path d="M409.863 237.953C410.586 239.633 408.522 242.592 404.664 245.384C400.763 242.657 398.668 239.658 399.391 237.879C399.832 236.802 401.461 235.774 402.833 236.303C403.907 236.713 404.63 238.008 404.565 239.509C404.561 239.366 404.496 237.41 405.764 236.604C407.155 235.72 409.338 236.738 409.863 237.953V237.953Z" fill="#FF8D9E"/>
<path d="M495.09 181.264C496.685 181.264 496.685 178.793 495.09 178.793C493.496 178.793 493.496 181.264 495.09 181.264Z" fill="white"/>
<path d="M514.638 142.618C516.232 142.618 516.232 140.147 514.638 140.147C513.043 140.147 513.043 142.618 514.638 142.618Z" fill="white"/>
<path d="M561.848 138.571C563.442 138.571 563.442 136.101 561.848 136.101C560.254 136.101 560.254 138.571 561.848 138.571Z" fill="white"/>
<path d="M516.866 169.559C518.46 169.559 518.46 167.089 516.866 167.089C515.271 167.089 515.271 169.559 516.866 169.559Z" fill="white"/>
<path d="M538.171 151.872C539.766 151.872 539.766 149.401 538.171 149.401C536.577 149.401 536.577 151.872 538.171 151.872Z" fill="white"/>
<path d="M498.779 227.266C500.373 227.266 500.373 224.796 498.779 224.796C497.184 224.796 497.184 227.266 498.779 227.266Z" fill="white"/>
<path d="M473.354 227.266C474.948 227.266 474.948 224.796 473.354 224.796C471.76 224.796 471.76 227.266 473.354 227.266Z" fill="white"/>
<path d="M454.89 220.641C456.484 220.641 456.484 218.171 454.89 218.171C453.296 218.171 453.296 220.641 454.89 220.641Z" fill="white"/>
<path d="M476.454 200.809C478.048 200.809 478.048 198.339 476.454 198.339C474.859 198.339 474.859 200.809 476.454 200.809Z" fill="white"/>
<path d="M506.676 204.386C508.271 204.386 508.271 201.916 506.676 201.916C505.082 201.916 505.082 204.386 506.676 204.386Z" fill="white"/>
<path d="M547.95 123.132C549.544 123.132 549.544 120.661 547.95 120.661C546.356 120.661 546.356 123.132 547.95 123.132Z" fill="white"/>
<path d="M425.381 234.262C426.975 234.262 426.975 231.792 425.381 231.792C423.786 231.792 423.786 234.262 425.381 234.262Z" fill="white"/>
<path d="M417.266 255.241C418.86 255.241 418.86 252.77 417.266 252.77C415.671 252.77 415.671 255.241 417.266 255.241Z" fill="white"/>
<path d="M447.246 255.241C448.84 255.241 448.84 252.77 447.246 252.77C445.651 252.77 445.651 255.241 447.246 255.241Z" fill="white"/>
<path d="M582.104 404.034C583.698 404.034 583.698 401.564 582.104 401.564C580.51 401.564 580.51 404.034 582.104 404.034Z" fill="white"/>
<path d="M559.304 520.881C560.898 520.881 560.898 518.411 559.304 518.411C557.709 518.411 557.709 520.881 559.304 520.881Z" fill="white"/>
<path d="M440.032 560.624C441.626 560.624 441.626 558.154 440.032 558.154C438.437 558.154 438.437 560.624 440.032 560.624Z" fill="white"/>
<path d="M55.683 391.628C57.2774 391.628 57.2774 389.158 55.683 389.158C54.0887 389.158 54.0887 391.628 55.683 391.628Z" fill="white"/>
<path d="M49.459 291.406C54.6875 283.106 60.9361 274.114 68.3828 264.801C75.7256 255.616 83.0238 247.632 89.8863 240.769C94.189 248.492 98.4867 256.219 102.789 263.941C102.789 263.941 109.756 278.808 127.16 298.555C152.981 327.859 198.745 292.419 246.803 318.264C271.029 331.292 279.927 352.518 330.881 392.621C335.416 396.193 342.343 401.534 352.785 404.405C377.343 411.154 400.243 398.402 402.521 397.087C441.121 374.869 424.44 323.916 464.021 280.25C480.414 262.162 499.739 252.745 513.331 247.637C539.706 277.39 566.082 307.142 592.457 336.89C581.045 345.823 565.086 359.978 550.03 380.373C543.197 389.632 538.211 397.848 534.309 405.408C519.025 435.052 510.81 458.268 508.171 465.62C499.462 489.859 455.584 539.478 384.894 555.733C357.32 562.072 294.513 576.513 255.309 538.855C252.581 536.237 224.467 508.52 226.641 472.487C228.552 440.783 252.056 433.367 249.343 407.542C246.624 381.697 219.863 358.476 194.532 351.767C165.908 344.178 155.63 362.023 131.175 351.48C113.187 343.728 112.504 331.243 86.4501 312.004C71.8933 301.253 58.297 294.954 49.4689 291.406H49.459Z" fill="white"/>
<path d="M144.499 72.9343C146.093 72.9343 146.093 70.464 144.499 70.464C142.905 70.464 142.905 72.9343 144.499 72.9343Z" fill="white"/>
<path d="M144.499 72.0747C146.093 72.0747 146.093 69.6044 144.499 69.6044C142.905 69.6044 142.905 72.0747 144.499 72.0747Z" fill="white"/>
<path d="M333.123 394.434C328.816 396.065 322.047 397.977 313.967 397.28C302.975 396.332 301.608 390.907 293.988 391.267C284.021 391.742 281.481 400.892 265.301 409.923C258.844 413.53 253.041 415.536 249.184 416.663C249.234 413.624 249.283 410.586 249.333 407.547C252.368 403.446 263.251 389.81 283.244 384.548C304.416 378.98 321.478 386.569 325.88 388.693C328.291 390.605 330.707 392.522 333.118 394.434H333.123Z" fill="#E6E7E8"/>
<path d="M82.291 255.448C105.369 302.147 129.373 316.377 147.91 320.132C177.168 326.055 213.936 310.161 232.583 327.212C234.301 328.783 241.47 335.759 249.511 344.227C257.374 352.513 262.884 358.866 264.35 360.541C300.178 401.539 318.091 422.038 343.031 428.609C376.051 437.305 405.625 419.746 409.324 417.473C425.589 407.493 434.041 394.523 441.611 382.621C465.006 345.848 456.727 324.529 478.315 296.303C485.088 287.449 496.07 276.248 514.375 266.659" stroke="#A73956" stroke-width="4" stroke-miterlimit="10"/>
<path d="M538.151 300.794C512.647 313.738 499.447 329.104 492.099 340.793C475.136 367.789 476.201 381.208 460.589 411.574C449.944 432.28 429.965 471.143 389.89 484.503C358.597 494.933 316.809 489.236 297.023 465.338C287.205 453.48 282.684 436.993 281.441 432.473C275.351 410.274 279.916 397.191 270.083 381.905C264.493 373.214 256.992 368.071 251.853 365.185" stroke="#A73956" stroke-width="4" stroke-miterlimit="10"/>
<path d="M561.571 329.509C548.633 338.224 533.007 350.892 518.653 368.995C502.844 388.94 501.794 401.613 478.671 445.027C466.61 467.67 460.579 478.994 455.697 485.017C424.539 523.475 378.68 532.956 364.712 535.846C342.555 540.426 312.427 546.657 283.793 530.95C278.164 527.862 259.656 517.383 249.996 495.98C247.545 490.555 243.411 481.089 244.688 469.276C246.06 456.563 252.734 450.047 257.923 440.748C263.622 430.531 269.093 414.153 265.89 388.145" stroke="#A73956" stroke-width="4" stroke-miterlimit="10"/>
<path d="M68.4771 274.914C75.29 285.398 86.4948 300.295 103.631 314.677C117.163 326.031 125.798 333.279 139.206 337.226C165.275 344.894 177.301 330.625 201.469 337.009C211.069 339.548 224.601 345.872 238.534 363.679" stroke="#A73956" stroke-width="4" stroke-miterlimit="10"/>
<path d="M227.492 347.903C217.986 351.964 211.633 351.357 207.425 349.761C203.518 348.283 200.612 345.64 197.388 346.9C194.774 347.923 193.021 351.105 193.086 354.054C193.175 358.155 196.75 360.507 198.245 361.49C202.176 364.079 206.36 363.679 207.707 363.491C199.968 365.976 196.769 372.898 198.532 376.934C199.711 379.642 203.216 381.267 206.989 381.51C206.811 381.712 203.835 385.131 205.028 389.138C206.098 392.72 210.029 395.215 214.391 394.667C213.158 398.787 214.48 403.135 217.639 405.536C221.224 408.258 225.497 407.206 226.046 407.063C226.314 408.599 227.002 410.941 228.953 412.374C232.285 414.825 237.172 413.061 241.712 411.415C247.362 409.375 251.169 406.534 253.996 404.39C256.74 402.31 260.334 399.242 264.033 394.948C251.848 379.262 239.663 363.575 227.482 347.888L227.492 347.903Z" fill="#FFCFAE"/>
<path d="M143.058 87.9194C151.251 87.9194 157.892 81.2922 157.892 73.1171C157.892 64.942 151.251 58.3148 143.058 58.3148C134.866 58.3148 128.224 64.942 128.224 73.1171C128.224 81.2922 134.866 87.9194 143.058 87.9194Z" fill="#D14E77"/>
<path d="M103.656 1.48218C116.475 20.6323 129.294 39.7823 142.112 58.9374C140.924 59.0065 138.617 59.303 136.161 60.7358C133.631 62.213 132.22 64.1448 131.581 65.1527C122.273 43.9276 112.964 22.7024 103.656 1.48218Z" fill="#D14E77"/>
<path d="M124.298 39.9059C125.892 39.9059 125.892 37.4355 124.298 37.4355C122.703 37.4355 122.703 39.9059 124.298 39.9059Z" fill="#F1F2F2"/>
<path d="M157.397 98.5912C157.041 96.279 156.432 92.8057 155.412 88.6456C153 78.8186 149.95 66.4027 144.351 65.6912C142.127 65.4096 139.632 66.9906 138.761 68.8384C137.988 70.4738 138.607 72.0647 139.86 75.7999C140.602 78.0182 141.677 81.3038 142.92 85.4293C141.142 84.1496 138.746 82.0597 137.042 78.8483C135.072 75.1428 135.602 73.2702 133.601 68.5519C132.547 66.0618 130.581 61.4225 127.293 61.1162C123.639 60.7703 120.644 65.9926 120.411 66.4076C118.891 65.6319 116.029 64.4709 113.578 65.5974C112.697 66.0025 110.137 67.6329 109.231 76.2791C108.543 82.8354 108.637 95.3403 116.831 114.164C130.353 108.972 143.87 103.784 157.392 98.5912H157.397Z" fill="#FFCFAE"/>
<path d="M114.064 87.2326C122.256 87.2326 128.898 80.6054 128.898 72.4303C128.898 64.2553 122.256 57.6281 114.064 57.6281C105.871 57.6281 99.2295 64.2553 99.2295 72.4303C99.2295 80.6054 105.871 87.2326 114.064 87.2326Z" fill="#D14E77"/>
<path d="M142.954 71.0519C143.558 72.4699 144.157 73.8879 144.761 75.3058C144.875 75.5677 145.237 75.7999 145.499 75.874C145.796 75.9531 146.192 75.9185 146.455 75.7505C146.717 75.5825 146.95 75.3256 147.024 75.0143C147.103 74.6685 147.039 74.3869 146.9 74.0608C146.296 72.6428 145.697 71.2248 145.093 69.8069C144.979 69.545 144.618 69.3128 144.355 69.2387C144.058 69.1596 143.662 69.1942 143.4 69.3622C143.137 69.5302 142.905 69.7871 142.83 70.0984C142.751 70.4442 142.815 70.7258 142.954 71.0519V71.0519Z" fill="#FFCFAE"/>
<path d="M143.182 69.5647C143.326 70.711 143.464 71.8523 143.608 72.9985C143.652 73.3394 143.717 73.621 143.969 73.873C144.182 74.0854 144.539 74.2485 144.846 74.2337C145.153 74.2188 145.499 74.1151 145.722 73.873C145.93 73.6507 146.123 73.3147 146.083 72.9985C145.94 71.8523 145.801 70.711 145.658 69.5647C145.613 69.2238 145.549 68.9422 145.296 68.6902C145.083 68.4778 144.727 68.3147 144.42 68.3295C144.113 68.3444 143.766 68.4481 143.543 68.6902C143.335 68.9125 143.142 69.2485 143.182 69.5647Z" fill="#FFCFAE"/>
<path d="M143.093 70.0439C143.519 71.5014 144.247 72.8206 145.212 73.9915C145.4 74.2238 145.801 74.3522 146.089 74.3522C146.391 74.3522 146.757 74.2188 146.965 73.9915C147.173 73.7643 147.341 73.4481 147.326 73.117C147.311 72.7712 147.183 72.5093 146.965 72.2425C146.901 72.1684 146.841 72.0894 146.782 72.0153L146.975 72.2672C146.47 71.6151 146.054 70.9036 145.732 70.1428L145.856 70.4392C145.712 70.0933 145.588 69.7475 145.484 69.3868C145.306 68.7692 144.603 68.3147 143.959 68.5222C143.316 68.7297 142.9 69.3769 143.093 70.0439V70.0439Z" fill="#FFCFAE"/>
<path d="M140.622 69.4364C140.939 71.0174 141.548 72.5639 142.395 73.9374C142.909 74.7773 143.637 75.4344 144.667 75.4641C145.643 75.4937 146.568 74.9107 146.945 74.0214C147.158 73.5224 147.192 72.969 147.054 72.4404C146.895 71.8475 146.529 71.4226 146.054 71.057C145.816 70.8742 145.37 70.8593 145.098 70.9335C144.811 71.0125 144.499 71.2348 144.36 71.5016C144.207 71.7882 144.132 72.134 144.236 72.4552C144.34 72.7763 144.533 72.9838 144.806 73.1913C144.647 73.0629 144.613 73.0431 144.702 73.1271C144.766 73.2012 144.761 73.1913 144.687 73.1024C144.618 73.0085 144.613 73.0036 144.662 73.0876C144.722 73.2012 144.707 73.1617 144.623 72.969C144.623 73.0135 144.657 73.1271 144.677 73.1568C144.657 72.9493 144.647 72.8949 144.657 72.9937C144.657 73.0283 144.657 73.0579 144.657 73.0925C144.682 73.3198 144.736 72.8208 144.672 73.0234C144.662 73.0678 144.652 73.1074 144.637 73.1518C144.722 72.969 144.741 72.9196 144.697 73.0085C144.563 73.2556 144.875 72.8455 144.717 72.9987C144.558 73.1518 144.969 72.8653 144.761 72.969C144.732 72.9888 144.707 73.0036 144.677 73.0184C144.593 73.0629 144.642 73.0431 144.821 72.9591C144.786 72.9591 144.667 72.9888 144.628 73.0135C144.845 72.9888 144.89 72.9838 144.761 72.9937C144.727 72.9937 144.697 72.9937 144.662 72.9937C144.563 72.9888 144.618 72.9937 144.826 73.0184C144.781 73.0085 144.741 72.9987 144.697 72.9888C144.484 72.9443 144.959 73.1123 144.751 73.0085C144.662 72.9493 144.662 72.9493 144.751 73.0135C144.836 73.0777 144.836 73.0777 144.756 73.0085C144.563 72.7763 144.732 73.0283 144.741 73.0184C144.732 73.0234 144.598 72.8109 144.583 72.7862C144.385 72.4799 144.207 72.1587 144.038 71.8327C143.949 71.6597 143.865 71.4868 143.786 71.3139C143.741 71.22 143.697 71.1261 143.662 71.0273L143.717 71.1607C143.692 71.1064 143.672 71.052 143.652 70.9977C143.37 70.2813 143.152 69.5402 142.999 68.7793C142.87 68.1469 142.083 67.722 141.474 67.9147C140.8 68.1321 140.473 68.7546 140.607 69.4364H140.622Z" fill="#FFCFAE"/>
<path d="M154.906 86.5854C154.619 86.452 151.718 85.1675 148.801 86.8078C146.093 88.3295 145.563 91.1407 145.504 91.5113C144.895 91.1704 141.573 89.3819 137.493 90.5726C132.962 91.8917 131.145 95.8097 130.893 96.3729C130.709 96.2445 126.966 93.7297 122.827 95.5874C120.039 96.8374 118.178 99.5695 118.014 102.648C116.232 102.806 114.454 102.959 112.672 103.117C112.746 103.819 112.86 104.545 113.014 105.301C113.786 109.041 115.355 112.01 116.836 114.169C130.358 108.977 143.875 103.789 157.397 98.5962C156.986 95.7306 156.426 92.7119 155.669 89.5696C155.426 88.5568 155.169 87.5637 154.901 86.5904L154.906 86.5854Z" fill="#FFB583"/>
<path d="M259.993 398.214C251.174 381.04 242.351 363.871 233.533 346.697C232.34 346.391 230.349 346.006 227.933 346.189C224.205 346.47 222.368 347.873 217.625 349.237C216.134 349.667 213.822 350.245 210.866 350.615C209.054 351.49 208.163 352.325 208.197 353.12C208.267 354.761 212.282 356.238 220.234 357.542C216.312 360.23 215.203 365.482 217.535 369.316C219.669 372.824 224.215 374.375 228.255 372.819C225.22 375.452 224.353 379.553 225.854 382.409C227.78 386.085 233.587 387.636 238.054 384.439C233.607 387.804 232.85 394.069 235.944 398.071C239.252 402.349 246.134 402.967 250.442 398.827C249.818 400.22 250.08 401.821 251.075 402.824C252.284 404.049 254.378 404.187 255.893 403.016C257.26 401.416 258.631 399.81 259.998 398.209L259.993 398.214Z" fill="#FFB583"/>
<path d="M292.81 195.024C279.496 196.852 276.431 211.407 267.341 211.59C257.621 211.787 256.601 195.241 243.257 191.565C229.221 187.697 217.654 202.509 211.148 197.573C205.147 193.018 214.565 180.088 207.707 169.253C200.379 157.672 183.52 163.043 179.326 153.23C174.776 142.593 192.066 130.449 186.209 119.332C184.496 116.076 180.327 112.02 178.757 104.169C178.4 102.396 178.306 102.055 178.039 100.019C176.945 91.7139 173.296 86.3879 170.731 86.5756C168.265 86.7535 165.661 92.1092 165.285 99.451C164.066 91.5361 157.318 87.5736 153.243 88.8681C149.856 89.9452 147.168 95.0192 148.084 100.884C147.004 96.0271 142.979 93.0627 139.77 93.4481C135.978 93.9026 132.21 99.1793 134.037 105.177C131.561 99.6734 126.833 96.8473 124.001 97.7415C120.822 98.7445 118.173 105.019 121.134 112.045C117.762 105.538 112.954 102.233 110.815 103.176C108.666 104.125 107.869 109.955 110.528 116.906C104.819 113.596 99.8779 113.023 98.7738 114.619C97.734 116.121 99.7641 120.034 103.646 123.774C104.993 125.187 107.013 127.351 109.379 130.068C114.073 135.444 120.629 142.717 122.283 147.232C127.372 161.175 101.873 173.621 105.369 186.284C109.469 201.135 148.277 197.454 152.674 215.463C153.035 216.95 152.847 217.286 152.243 224.045C151.733 229.747 149.52 254.47 150.431 261.876C154.223 292.735 246.535 302.429 245.56 322.024C245.332 326.614 239.925 332.888 238.677 334.326C233.578 340.225 227.319 343.328 224.056 344.909C216.59 348.526 210.727 349.356 210.871 350.63C211.064 352.369 221.917 350.546 224.343 355.205C226.552 359.445 219.971 365.551 222.051 368.081C224.324 370.853 233.711 365.339 235.524 367.794C237.42 370.354 228.666 378.343 230.651 381.238C232.573 384.044 242.475 378.995 244.411 381.811C246.411 384.716 237.653 392.666 239.539 395.255C241.505 397.952 252.318 391.099 255.878 394.681C258.73 397.552 254.234 404.38 256.165 405.838C259.552 408.397 271.673 388.402 291.429 384.667C307.169 381.692 310.719 392.305 325.89 388.693C342.709 384.691 344.269 370.235 359.519 369.504C370.431 368.98 373.541 376.198 383.171 373.797C394.708 370.917 400.699 357.952 401.664 355.774C409.334 338.432 398.807 325.077 406.967 317.439C412.775 312.004 419.593 317.37 427.035 311.144C433.942 305.369 435.843 294.237 433.917 285.828C431.426 274.964 424.039 275.166 413.275 260.512C400.575 243.22 405.085 235.073 394.638 228.185C382.983 220.503 375.67 229.001 363.965 221.318C352.483 213.783 354.275 200.695 342.462 196.145C337.268 194.144 332.128 194.826 328.647 195.686C320.448 195.982 312.244 196.279 304.044 196.575C301.747 195.656 297.637 194.366 292.815 195.029L292.81 195.024Z" fill="#E293B6"/>
<path d="M370.808 246.505C370.258 245.616 369.52 244.129 369.387 242.212C369.139 238.66 371.016 234.406 373.189 234.292C375.269 234.183 377.224 237.874 377.819 240.562C378.373 243.067 377.858 245.201 377.487 246.337C378.744 245.829 380.552 245.246 382.78 245.018C387.959 244.495 394.564 245.997 394.851 248.319C395.128 250.562 389.553 253.862 384.265 253.931C381.893 253.961 379.948 253.338 378.641 252.775C379.789 253.704 381.542 255.359 382.938 257.889C383.963 259.746 385.345 262.251 384.429 263.501C383.25 265.107 378.477 264.346 375.496 261.851C373.194 259.924 372.446 257.36 372.189 256.239C371.986 257.419 371.367 259.969 369.213 262.014C366.663 264.44 362.227 265.912 360.613 264.326C358.969 262.706 360.633 258.289 362.598 255.744C364.316 253.521 366.48 252.449 367.723 251.95C366.213 252.34 363.45 252.82 360.281 251.95C358.33 251.416 354.255 249.835 354.33 247.988C354.404 246.09 358.85 244.593 362.103 244.356C366.079 244.065 369.228 245.586 370.803 246.505H370.808Z" fill="#FFF3F3"/>
<path d="M246.283 220.063C245.733 219.174 244.995 217.687 244.862 215.77C244.614 212.217 246.491 207.963 248.664 207.85C250.744 207.741 252.699 211.432 253.294 214.119C253.848 216.624 253.333 218.759 252.962 219.895C254.22 219.386 256.027 218.803 258.255 218.576C263.434 218.052 270.039 219.554 270.326 221.876C270.603 224.119 265.028 227.42 259.74 227.489C257.369 227.518 255.423 226.896 254.116 226.333C255.264 227.262 257.017 228.917 258.413 231.446C259.438 233.304 260.82 235.809 259.904 237.059C258.725 238.665 253.952 237.904 250.971 235.409C248.669 233.482 247.921 230.918 247.664 229.796C247.461 230.977 246.842 233.526 244.688 235.572C242.138 237.998 237.702 239.47 236.088 237.884C234.444 236.263 236.108 231.847 238.073 229.302C239.791 227.079 241.955 226.007 243.198 225.508C241.688 225.898 238.925 226.377 235.756 225.508C233.805 224.974 229.73 223.393 229.805 221.545C229.879 219.648 234.325 218.151 237.578 217.914C241.554 217.622 244.703 219.144 246.278 220.063H246.283Z" fill="#FFF3F3"/>
<path d="M398.654 328.896C398.104 328.007 397.366 326.52 397.233 324.603C396.97 320.853 399.109 316.624 401.035 316.683C402.768 316.737 403.996 320.25 404.367 321.411C404.15 322.147 403.882 323.224 403.734 324.548C403.669 325.146 403.575 326.238 403.808 329.479C403.956 331.54 403.976 331.831 404.298 334.776C404.432 336.021 404.536 337.345 404.59 338.743C404.664 340.645 404.635 342.429 404.541 344.064C403.04 342.256 401.54 340.448 400.045 338.634C399.842 339.815 399.223 342.365 397.069 344.41C394.519 346.836 390.083 348.308 388.469 346.722C386.825 345.102 388.489 340.685 390.454 338.14C392.172 335.917 394.336 334.845 395.579 334.346C394.069 334.736 391.306 335.215 388.137 334.346C386.186 333.812 382.111 332.231 382.186 330.383C382.26 328.486 386.706 326.989 389.959 326.752C393.935 326.46 397.084 327.982 398.659 328.901L398.654 328.896Z" fill="#FFF3F3"/>
<path d="M179.619 257.355C179.069 256.466 178.331 254.979 178.198 253.062C177.95 249.509 179.827 245.255 182 245.142C184.08 245.033 186.035 248.724 186.63 251.411C187.184 253.916 186.669 256.051 186.298 257.187C187.555 256.678 189.363 256.095 191.591 255.868C196.77 255.344 203.375 256.846 203.662 259.168C203.939 261.411 198.364 264.712 193.076 264.781C190.704 264.811 188.759 264.188 187.451 263.625C188.6 264.554 190.353 266.209 191.749 268.738C192.774 270.596 194.156 273.101 193.24 274.351C192.061 275.957 187.288 275.196 184.307 272.701C182.005 270.774 181.257 268.21 181 267.088C180.797 268.269 180.178 270.818 178.024 272.864C175.474 275.29 171.038 276.762 169.424 275.176C167.78 273.556 169.444 269.139 171.409 266.594C173.127 264.371 175.291 263.299 176.534 262.8C175.024 263.19 172.261 263.669 169.092 262.8C167.141 262.266 163.066 260.685 163.141 258.837C163.215 256.94 167.661 255.443 170.914 255.206C174.89 254.914 178.039 256.436 179.614 257.355H179.619Z" fill="#FFF3F3"/>
<path d="M114.579 136.101C113.945 135.345 113.311 134.589 112.677 133.838C113.029 129.145 115.039 125.894 116.945 125.805C119.025 125.711 120.981 129.387 121.575 132.074C122.129 134.579 121.614 136.714 121.243 137.85C122.501 137.341 124.308 136.758 126.536 136.531C131.715 136.007 138.32 137.509 138.607 139.831C138.884 142.074 133.309 145.375 128.021 145.444C125.65 145.473 123.704 144.851 122.397 144.288C124.813 144.955 126.541 147.035 126.694 149.401C126.873 152.109 124.976 154.673 122.159 155.35C122.535 154.278 123.02 152.445 122.822 150.177C122.679 148.532 122.233 147.331 121.956 146.595C121.292 144.841 120.431 143.645 118.738 141.328C117.49 139.619 116.43 138.309 114.574 136.101H114.579Z" fill="#FFF3F3"/>
<path d="M188.951 159.54C193.294 160.76 193.21 160.547 195.418 161.205C197.889 161.936 199.503 162.425 201.468 163.527C202.761 164.253 203.751 164.989 204.409 165.518C201.869 165.612 199.329 165.71 196.789 165.804C197.938 166.733 199.691 168.388 201.087 170.918C202.112 172.776 203.493 175.281 202.577 176.531C201.399 178.136 196.626 177.375 193.645 174.88C191.343 172.953 190.595 170.389 190.338 169.268C190.135 170.449 189.516 172.998 187.362 175.043C184.812 177.469 180.376 178.942 178.762 177.356C177.118 175.735 178.782 171.318 180.747 168.774C182.465 166.55 184.629 165.478 185.872 164.979C184.362 165.37 181.599 165.849 178.43 164.979C176.479 164.446 172.404 162.865 172.479 161.017C172.553 159.12 176.752 157.128 180.252 157.385C180.995 157.44 182.416 157.805 185.258 158.537C186.822 158.942 188.105 159.293 188.951 159.535V159.54Z" fill="#FFF3F3"/>
<path d="M315.923 350.62C315.373 349.731 314.635 348.244 314.502 346.327C314.254 342.775 316.131 338.521 318.304 338.407C320.384 338.298 322.34 341.989 322.934 344.677C323.488 347.182 322.973 349.316 322.602 350.453C323.86 349.944 325.667 349.361 327.895 349.133C333.074 348.61 339.679 350.112 339.966 352.434C340.243 354.677 334.668 357.977 329.38 358.046C327.009 358.076 325.063 357.453 323.756 356.89C324.904 357.819 326.657 359.474 328.053 362.004C329.078 363.862 330.46 366.366 329.544 367.616C328.365 369.222 323.592 368.461 320.612 365.966C318.309 364.039 317.562 361.475 317.304 360.354C317.101 361.534 316.482 364.084 314.328 366.129C311.779 368.555 307.342 370.027 305.728 368.442C304.084 366.821 305.748 362.404 307.714 359.86C309.432 357.636 311.595 356.564 312.838 356.065C311.328 356.455 308.565 356.935 305.396 356.065C303.446 355.532 299.371 353.951 299.445 352.103C299.519 350.205 303.965 348.708 307.218 348.471C311.194 348.18 314.343 349.702 315.918 350.62H315.923Z" fill="#FFF3F3"/>
<path d="M210.465 559.389C219.585 559.389 226.978 552.012 226.978 542.912C226.978 533.812 219.585 526.435 210.465 526.435C201.346 526.435 193.953 533.812 193.953 542.912C193.953 552.012 201.346 559.389 210.465 559.389Z" fill="#EDCED9"/>
<path d="M304.802 169.633C303.955 172.524 302.935 176.782 302.51 182.029C301.935 189.105 301.628 192.894 304.04 196.57C307.644 202.069 314.442 202.894 315.507 203.008C316.953 203.161 323.478 203.852 326.781 199.954C330.291 195.819 327.826 189.277 330.267 188.418C331.767 187.889 332.831 190.31 336.144 190.419C336.57 190.434 339.476 190.483 341.496 188.319C343.442 186.234 343.828 182.894 342.452 180.31C342.273 179.974 340.674 177.094 337.292 176.689C334.782 176.387 332.272 177.568 330.796 179.742C330.925 177.197 331.049 174.658 331.178 172.114C322.384 171.288 313.596 170.458 304.802 169.633Z" fill="#FFCFAE"/>
<path d="M324.251 241.629C314.205 254.198 313.957 260.058 315.65 263.086C319.166 269.376 332.584 266.14 335.862 273.383C338.174 278.496 332.841 283.116 335.862 287.543C338.788 291.836 345.348 289.771 347.472 293.981C348.854 296.713 347.918 301.214 345.323 303.422C339.169 308.664 328.549 296.861 316.943 300.561C306.292 303.956 308.694 315.976 298.88 319.445C285.457 324.188 273.238 304.983 257.597 309.43C251.051 311.293 246.837 316.495 244.476 320.112" stroke="white" stroke-width="4" stroke-linecap="round" stroke-linejoin="round"/>
<path d="M278.456 221.179C273.693 224.332 267.563 229.5 267.103 236.402C266.647 243.23 272.114 246.293 270.663 251.876C268.672 259.529 257.225 258.319 254.853 265.626C252.145 273.976 264.984 282.073 261.597 289.178C259.621 293.323 254.056 292.044 251.303 296.737C248.743 301.105 250.625 307.053 252.908 311.792" stroke="white" stroke-width="4" stroke-linecap="round" stroke-linejoin="round"/>
<path d="M311.813 178.788C312.283 182.622 311.996 186.545 310.966 190.266C310.927 190.409 310.887 190.567 310.942 190.71C311.031 190.938 311.318 191.007 311.566 191.036C312.897 191.199 314.244 191.244 315.581 191.17" stroke="#231F20" stroke-width="2" stroke-miterlimit="10" stroke-linecap="round"/>
<path d="M318.953 197.746C319.299 197.761 320.314 197.756 321.285 197.074C322.676 196.091 322.834 194.495 322.849 194.263" stroke="#231F20" stroke-width="2" stroke-miterlimit="10" stroke-linecap="round"/>
<path d="M333.851 183.403C335.539 183.512 337.228 183.561 338.916 183.556" stroke="#050505" stroke-width="3" stroke-miterlimit="10" stroke-linecap="round"/>
<path d="M324.696 191.842C326.791 191.842 328.489 190.147 328.489 188.057C328.489 185.967 326.791 184.273 324.696 184.273C322.602 184.273 320.904 185.967 320.904 188.057C320.904 190.147 322.602 191.842 324.696 191.842Z" fill="#FF8D9E"/>
<path d="M306.965 187.148C307.01 189.228 304.846 191.308 302.182 190.942C302.108 190.157 302.083 189.485 302.074 188.971C302.064 188.215 302.088 187.627 302.108 187.143C302.133 186.619 302.163 186.244 302.212 185.542C302.252 185.033 302.306 184.337 302.385 183.507C304.901 183.275 306.916 185.187 306.96 187.153L306.965 187.148Z" fill="#FF8D9E"/>
<path d="M318.061 181.946C318.234 181.946 318.373 181.806 318.373 181.634C318.373 181.462 318.234 181.323 318.061 181.323C317.889 181.323 317.75 181.462 317.75 181.634C317.75 181.806 317.889 181.946 318.061 181.946Z" stroke="#231F20" stroke-width="2" stroke-miterlimit="10"/>
<path d="M305.708 181.827C305.88 181.827 306.02 181.688 306.02 181.516C306.02 181.344 305.88 181.204 305.708 181.204C305.536 181.204 305.396 181.344 305.396 181.516C305.396 181.688 305.536 181.827 305.708 181.827Z" stroke="#231F20" stroke-width="2" stroke-miterlimit="10"/>
<path d="M306.193 177.652C307.522 177.652 308.6 177.112 308.6 176.447C308.6 175.781 307.522 175.241 306.193 175.241C304.864 175.241 303.787 175.781 303.787 176.447C303.787 177.112 304.864 177.652 306.193 177.652Z" fill="#050505"/>
<path d="M318.062 178.112C319.391 178.112 320.468 177.572 320.468 176.906C320.468 176.24 319.391 175.701 318.062 175.701C316.733 175.701 315.655 176.24 315.655 176.906C315.655 177.572 316.733 178.112 318.062 178.112Z" fill="#050505"/>
<path d="M303.688 172.054C303.901 172.771 304.243 173.215 304.515 173.482C305.985 174.94 308.719 174.564 310.422 173.62C311.219 173.181 311.764 172.632 312.11 172.217C312.338 172.529 313.729 174.347 316.254 174.633C319.205 174.969 321.166 172.914 321.369 172.697C321.631 173.284 322.612 175.305 324.914 176.333C325.31 176.511 327.925 177.677 330.113 176.427C330.514 176.195 330.811 175.938 330.999 175.75C331.41 175.073 332.703 172.771 331.757 171.046C331.494 170.572 331.143 170.285 330.881 170.098C329.133 168.823 326.172 169.544 317.611 167.469C316.18 167.123 311.783 166.022 308.228 167.385C307.535 167.652 306.976 167.998 306.906 168.042C304.99 169.248 304.089 171.046 303.688 172.049V172.054Z" fill="#FFB583"/>
<path d="M303.237 171.066C303.564 172.524 305.119 173.467 306.332 173.784C308.421 174.322 310.803 173.324 312.303 171.209C313.066 172.939 314.704 174.12 316.556 174.263C318.606 174.421 320.577 173.28 321.503 171.392C321.681 171.985 322.463 174.342 324.82 175.597C326.939 176.728 330.256 176.926 331.846 175.024C333.227 173.369 332.95 170.542 331.752 168.729C330.039 166.14 327.756 167.613 317.611 165.152C316.18 164.806 311.783 163.705 308.228 165.068C307.733 165.256 307.307 165.483 306.906 165.725C306.609 165.903 302.638 168.393 303.237 171.066V171.066Z" fill="#050505"/>
<path d="M197.587 347.626C198.483 346.282 202.998 347.473 203.726 348.97C204.083 349.701 203.528 350.502 202.899 351.411C202.285 352.3 201.874 352.898 201.206 352.863C199.592 352.779 196.681 348.985 197.587 347.626V347.626Z" fill="white"/>
<path d="M144.726 67.1537C146.266 66.6597 149.054 70.3998 148.687 72.0203C148.509 72.8108 147.578 73.0924 146.514 73.4185C145.479 73.7298 144.781 73.9422 144.281 73.5025C143.073 72.4304 143.162 67.6527 144.721 67.1537H144.726Z" fill="white"/>
<path d="M135.329 0C131.056 21.1609 126.783 42.3169 122.51 63.4779C121.451 62.7467 119.51 61.6103 116.816 61.1014C114.336 60.632 112.276 60.8988 111.048 61.1558C119.143 40.7705 127.239 20.3902 135.334 0.00494174L135.329 0Z" fill="#D14E77"/>
</svg>
