<svg width="382" height="409" viewBox="0 0 382 409" fill="none" xmlns="http://www.w3.org/2000/svg">
<path d="M94.0556 113.337C85.4832 75.6999 76.9009 38.0675 68.3285 0.430327C101.021 30.6023 133.72 60.7597 166.413 90.9316C195.867 61.0936 225.311 31.2603 254.765 1.42228C249.843 47.7523 244.92 94.0822 239.998 140.412C287.069 147.896 334.144 155.39 381.224 162.869L278.882 207.393C299.389 239.499 319.892 271.597 340.4 303.704C303.413 295.392 266.417 287.085 229.426 278.764C230.347 322 231.269 365.236 232.19 408.472L155.742 269.37C118.416 283.699 81.0904 298.029 43.7643 312.358C72.0565 278.784 100.349 245.211 128.641 211.637C85.8724 182.337 43.0994 153.027 0.330964 123.727C31.571 120.26 62.8255 116.799 94.0655 113.332L94.0556 113.337Z" fill="white"/>
</svg>
