<svg width="267" height="285" viewBox="0 0 267 285" fill="none" xmlns="http://www.w3.org/2000/svg">
<path d="M82.5096 114.068C75.8601 72.9427 66.3459 3.71547 78.6431 0.144222C91.6526 -3.63491 123.349 67.7825 139.231 105.47C191.922 51.2925 220.709 26.2195 225.6 30.2362C230.068 33.9114 214.601 61.8503 179.194 114.068C185.124 116.451 270.996 151.31 266.855 166.946C262.729 182.523 171.543 170.413 165.012 169.522C184.664 211.724 211.559 273.979 201.11 280.439C191.432 286.416 153.227 242.313 123.765 205.636C57.6333 277.098 37.6329 288.249 32.2376 284.307C26.679 280.246 31.5474 256.494 85.0922 163.078C79.541 162.729 0.852857 157.531 0.00682776 143.729C-0.839202 129.875 77.2108 115.055 82.5096 114.068V114.068Z" fill="#425056"/>
</svg>
