<svg width="173" height="210" viewBox="0 0 173 210" fill="none" xmlns="http://www.w3.org/2000/svg">
<path d="M62.9701 122.204C41.8587 111.003 -3.37305 85.8942 0.199913 75.9471C4.0992 65.0958 64.2091 77.5671 86.0285 82.3714C110.453 25.2132 127.106 -2.19806 135.989 0.137535C143.976 2.23457 145.679 28.3643 141.111 78.5157C163.456 70.5326 198.477 59.3484 202.598 66.9543C207.305 75.642 169.517 104.862 151.359 118.348C195.579 163.529 204.373 178.796 201.32 182.591C198.394 186.23 182.941 181.409 135.347 151.751C129.761 176.45 115.696 235.072 105.884 233.985C96.3823 232.931 95.16 176.322 94.994 150.47C81.9854 161.898 29.5469 207.417 21.339 199.939C13.1865 192.505 52.7656 136.462 62.9701 122.204V122.204Z" fill="white"/>
</svg>
